<svg width="24" height="24" viewBox="0 0 24 24" fill="none" xmlns="http://www.w3.org/2000/svg">
<path d="M12 -6.10352e-05C9.62663 -6.10352e-05 7.30655 0.703727 5.33316 2.0223C3.35977 3.34088 1.8217 5.21502 0.913451 7.40774C0.0051994 9.60045 -0.232441 12.0132 0.230582 14.341C0.693605 16.6688 1.83649 18.807 3.51472 20.4852C5.19295 22.1634 7.33115 23.3063 9.65892 23.7694C11.9867 24.2324 14.3995 23.9947 16.5922 23.0865C18.7849 22.1782 20.6591 20.6402 21.9776 18.6668C23.2962 16.6934 24 14.3733 24 11.9999C24 8.81734 22.7357 5.76509 20.4853 3.51466C18.2348 1.26422 15.1826 -6.10352e-05 12 -6.10352e-05ZM10.2857 16.7914L6 12.5057L7.36286 11.1428L10.2857 14.0656L16.6371 7.71422L18.0051 9.07365L10.2857 16.7914Z" fill="white"/>
</svg>
