<svg width="203" height="176" viewBox="0 0 203 176" fill="none" xmlns="http://www.w3.org/2000/svg">
<path d="M171.6 157.911C171.65 158.017 171.465 158.292 170.926 158.778C174.659 156.737 172.923 157.445 172.358 157.467C174.195 156.377 176.032 155.276 177.844 154.134C178.054 154.187 178.063 154.367 176.504 155.435C179.596 153.806 179.959 153.213 180.169 152.642C183.557 150.452 186.893 148.156 190.129 145.649C190.786 145.321 191.351 145.046 191.781 144.866C194.308 142.813 195.716 141.417 196.457 140.39C196.516 140.316 196.558 140.253 196.609 140.179C198.134 138.655 199.524 136.962 200.687 134.995C200.62 135.153 200.552 135.312 200.502 135.471C200.207 136.074 200.114 136.476 200.358 136.539C200.923 135.587 201.395 134.434 201.808 133.365C202.246 132.223 202.878 130.815 202.979 129.535C203.08 128.636 202.811 128.107 202.28 127.599V127.589C200.721 126.128 198.437 125.98 196.575 125.748C194.132 125.441 191.781 124.774 189.388 124.139C183.734 122.648 178.113 121.092 172.603 118.934C169.847 117.865 167.109 116.659 164.421 115.347C162.896 114.607 161.497 113.305 159.938 114.469C157.697 116.141 155.818 119.717 155.025 122.785C154.68 124.139 154.731 124.7 155.784 125.24C158.261 126.509 160.764 127.684 163.3 128.763C168.499 130.985 173.791 132.677 179.15 134.106C170.462 136.571 161.472 137.766 152.582 138.19C152.599 138.19 152.624 138.19 152.641 138.19C149.329 137.872 148.512 138.105 147.779 138.327C146.422 138.338 145.074 138.338 143.717 138.306C145.024 138.052 146.009 137.555 147.273 137.312C143.701 137.735 142.563 137.925 141.055 138.211C139.892 138.158 138.729 138.084 137.575 137.999C137.187 137.862 137.491 137.703 137.322 137.555C136.277 137.618 135.232 137.65 134.196 137.735C130.783 137.407 127.371 136.984 123.992 136.391C124.051 136.328 123.537 136.211 120.857 135.788C115.127 134.603 109.406 132.963 103.769 130.921C104.097 130.519 104.418 130.096 104.746 129.673C105.243 129.144 105.648 128.731 105.917 128.456C106.078 128.308 106.187 128.223 106.28 128.17C106.221 127.895 106.373 127.567 106.457 127.324C108.858 123.833 110.813 120.055 112.38 116.099C112.524 115.771 112.675 115.432 112.827 115.093C113.83 112.639 114.605 110.047 115.372 107.465C115.81 106.746 115.751 107.465 115.658 107.962C115.439 109.126 115.119 110.28 114.782 111.401C114.116 113.623 113.316 115.771 112.566 117.961C113.594 115.559 114.58 113.083 115.212 110.449C115.793 108.047 116.046 105.561 116.374 103.096C116.417 102.63 116.459 102.112 116.501 101.551C116.905 99.4667 117.015 96.5995 116.981 93.7747C117.158 89.9129 117.065 86.0195 116.695 82.126C116.737 82.3482 116.779 82.5598 116.821 82.7714C116.61 80.8881 116.433 79.0049 116.391 77.1005C116.341 74.8258 115.894 72.7839 115.296 70.6467C115.448 71.7893 115.557 73.2388 115.7 74.8469C114.917 70.4139 113.788 66.1078 112.38 61.9287C112.001 60.6062 111.9 59.982 112.482 60.7755C111.546 58.3527 110.628 55.5807 109.128 53.6022C108.209 51.5391 107.207 49.5395 106.153 47.5716C106.625 48.1958 107.055 48.8624 107.493 49.5183C107.594 49.6982 108.715 52.0258 109.035 51.9517C109.119 51.9306 108.041 49.1586 107.982 49.0211C106.853 47.3177 105.732 45.6249 104.544 43.985C104.468 43.7099 104.106 42.9693 103.6 42.0276C102.724 40.5041 101.848 38.9912 100.946 37.4888C100.845 37.3195 99.3872 34.7063 99.6147 34.6745C97.525 32.0295 97.0194 31.8179 95.1909 29.8606C93.8006 27.5541 92.1828 25.5757 90.2279 24.0627C90.8093 24.7187 91.3401 25.3323 91.8289 25.8931C95.1825 30.0087 98.2075 34.3783 101.182 38.9171C101.763 39.8587 102.446 40.9802 103.272 42.3133C103.187 42.271 103.036 42.0806 102.85 41.8161C97.3228 32.9077 90.5649 25.0679 83.3015 18.6035C82.7286 17.7253 85.2817 19.5874 85.7873 19.6932C83.2426 17.1116 81.6837 16.1277 80.2681 15.1649C78.8104 14.2762 77.4874 13.3558 75.0523 11.4619C75.7432 11.8851 76.4426 12.3189 77.1335 12.7527C77.2936 12.8479 77.7402 13.2499 77.9425 13.197C77.8161 13.2287 76.6111 12.0015 76.4426 11.864C75.7264 11.2926 74.9933 10.7636 74.2518 10.2452C72.8109 9.22951 71.3279 8.28787 69.8954 7.25102C71.0414 8.57353 72.4233 9.61043 73.7294 10.6684C75.3809 12.0015 77.024 13.3346 78.6503 14.71C71.2689 8.89099 63.0702 4.48965 54.4418 2.63814C45.9818 0.818375 36.8057 1.68597 29.6266 8.09749C24.7646 12.4247 21.7312 18.815 20.6274 26.1259C20.5937 26.2105 20.5684 26.2422 20.5431 26.1999C20.5431 26.3375 20.5431 26.4856 20.5515 26.6443C20.0544 30.2097 19.9617 33.9234 20.1639 37.6581C19.9364 36.7377 19.7426 35.3411 19.7679 33.151C19.2202 38.9277 19.9196 44.9266 21.074 50.5234C22.2115 55.9933 23.863 61.7065 26.3825 66.4252C26.5678 66.9436 26.7532 67.4621 26.947 67.9805C26.9639 68.0334 27.3262 69.303 27.1998 69.3136C26.9723 69.3453 26.551 68.2027 26.4583 68.0334C25.9696 67.0177 25.523 65.9597 25.0596 64.9229C24.2759 62.8174 23.5428 60.6697 22.6749 58.6066C24.5456 65.3884 26.9217 71.9481 29.8456 78.1268C32.719 84.1786 36.1653 89.6273 39.7802 95.0019C42.367 98.4299 44.9538 101.847 47.7682 105C50.6078 108.174 53.5991 111.094 56.6073 114.004C57.728 114.988 58.8655 116.003 60.0368 117.019C60.4328 116.702 60.9721 116.977 61.7894 117.527C62.6236 118.045 63.7359 118.818 65.2105 119.558L66.6682 121.188C66.1879 120.637 67.3086 121.103 67.0727 120.553C73.5019 125.43 80.2597 129.652 87.1102 133.238C84.6581 134.825 82.1219 136.169 79.5266 137.343C80.681 136.359 81.8354 135.333 83.0319 134.434C82.6274 134.73 82.2146 135.016 81.7932 135.291C80.3102 136.179 78.7598 136.994 77.1757 137.587C75.086 138.496 73.089 139.047 71.0835 139.629C67.0305 140.623 62.8427 141.374 56.8011 142.073C57.7533 141.586 58.9077 141.565 59.9104 141.364C61.4271 141.046 62.9438 140.771 64.4521 140.401C66.8957 139.808 69.3562 139.163 71.7576 138.306C69.7859 138.877 67.0305 139.671 64.688 140.094C63.8623 140.285 63.0196 140.411 62.1686 140.486C61.7978 140.517 60.5508 140.856 60.2558 140.443C59.9946 140.739 59.7503 141.036 59.4891 141.321C52.3099 141.882 60.4075 140.538 58.0398 140.189C55.7394 140.401 53.439 140.454 51.1387 140.623C50.4814 140.676 49.3102 140.612 48.8636 141.353C48.7372 141.575 48.6951 141.84 48.5266 142.03C48.1305 142.475 47.4733 142.485 46.9761 142.528C44.6336 142.284 42.308 141.924 40.0077 141.427C39.4515 141.247 38.7774 141.078 38.0191 140.941C36.2748 140.507 34.539 140.009 32.837 139.428C33.0729 139.428 33.233 139.406 33.3173 139.354C33.5785 139.174 33.2077 138.782 32.9549 138.528C31.1686 138.37 29.4243 137.957 27.7644 137.1C25.9359 136.148 24.2422 134.91 22.4643 133.841C20.9897 132.783 19.1696 131.619 16.9114 129.916C16.9283 129.62 18.0237 130.286 19.1949 130.995C20.4083 131.641 21.7144 132.275 22.0683 132.201C17.8551 130.001 14.1308 126.732 10.3305 123.61C9.4205 122.806 8.72956 122.267 8.36724 122.171C6.24383 119.78 4.30579 117.178 2.36776 114.564L2.22452 114.395C2.16554 114.332 2.06442 114.247 1.97173 114.173C1.79478 114.035 1.55885 113.908 1.24708 113.983C1.0954 114.004 0.977444 114.11 0.859477 114.194C0.766789 114.289 0.690946 114.395 0.61511 114.501C0.151668 115.368 0.0842662 116.543 0.109545 117.548L0.0674112 117.516L0.0505552 117.495V117.485C-0.0421331 117.379 0.0505568 117.495 0.117966 117.59C0.117966 117.643 0.117966 117.696 0.117966 117.749C0.0842616 117.707 0.0337049 117.643 0 117.601L0.0421336 117.654L0.109545 117.749C0.210659 120.024 0.657241 122.404 1.66839 124.33C2.70481 126.329 4.28895 128.139 5.67927 129.757C4.86193 128.805 4.06144 127.8 3.17669 126.943C3.01659 126.784 2.72166 126.435 2.48573 126.541C2.37619 126.594 2.30036 126.71 1.98859 126.541C1.49144 126.202 1.08699 125.758 0.716233 125.229C0.623545 125.081 0.53085 124.933 0.446588 124.785C0.690948 125.208 0.952163 125.61 1.23865 125.991C1.36505 126.16 1.47458 126.287 1.5757 126.382L1.88748 126.731C7.17914 132.614 12.6309 138.158 19.0095 142.104C22.5822 144.739 26.3993 146.707 30.3259 148.357C30.2754 148.569 30.0057 148.696 29.3906 148.812C35.053 151.499 36.0221 151.33 36.8394 151.33C38.6847 151.161 40.6565 151.849 42.4513 152.24C41.6929 152.05 40.9345 151.849 40.1762 151.658C39.7717 151.552 39.2577 151.288 38.8448 151.288C38.9375 151.309 39.0302 151.319 39.1229 151.33C44.5073 152.716 50.0096 153.393 55.5035 153.393C55.1664 153.658 54.5597 153.869 56.2197 153.785C58.4779 153.065 60.9131 153.235 63.2219 152.97C64.0055 152.917 64.806 152.875 65.6149 152.843C67.4603 152.61 69.314 152.378 70.9993 152.177C72.6761 151.87 74.1759 151.446 75.3135 151.076L73.6872 151.679C73.6872 151.679 75.482 151.32 77.2684 150.886C79.0379 150.325 80.8074 149.775 80.8074 149.775C80.8832 149.775 80.8074 149.817 80.8579 149.817C80.9591 149.701 81.0602 149.584 81.1192 149.479C83.2931 149.203 85.5429 148.103 87.5736 147.14C89.9498 146.019 92.5114 144.464 94.559 142.602C95.3342 141.607 96.3622 140.866 97.2469 140.041C97.466 140.02 97.7356 140.179 98.0053 140.263C100.853 141.374 103.718 142.485 106.617 143.416C108.976 144.167 111.386 145.098 113.821 145.331C111.234 144.76 108.732 143.935 106.212 142.93L106.87 142.295C109.6 143.226 109.65 143.437 109.676 143.586C109.709 143.712 109.718 143.85 112.406 144.358C111.984 143.564 110.746 143.374 110.072 143.141C109.044 142.781 108.007 142.506 106.971 142.231C104.991 141.702 103.002 141.131 101.072 140.327C103.019 140.697 104.932 141.3 106.844 141.829C105.58 141.427 104.342 140.93 103.103 140.433C104.662 141.025 106.238 141.586 107.822 142.115C107.493 142.02 107.173 141.924 106.844 141.829C108.614 142.411 110.375 143.078 112.17 143.511C113.383 143.871 114.596 144.241 115.81 144.569C115.481 144.665 115.557 144.855 116.543 145.268C119.02 146.04 121.481 146.738 124.034 146.918C124.885 146.939 125.618 146.961 126.469 146.982C128.255 147.31 130.042 147.595 131.837 147.849C132.932 148.431 132.089 148.854 138.62 149.584L133.176 149.5C138.358 151.15 138.232 149.648 142.209 150.092C140.254 149.542 138.358 149.32 136.361 149.098C135.932 148.653 139.403 148.876 141.072 148.876L140.01 148.78C140.103 148.759 140.178 148.738 140.263 148.717C144.897 149.055 149.532 149.151 154.166 149.024C154.183 149.024 154.225 149.024 154.242 149.024C153.745 149.098 153.248 149.172 152.75 149.225C156.416 148.886 160.09 148.78 163.747 148.389L163.696 148.431C163.806 148.41 163.898 148.378 163.999 148.357C165.929 148.156 167.85 147.913 169.763 147.595C169.35 147.839 169.637 147.976 171.726 147.458C171.204 147.966 170.285 148.082 169.662 148.209C168.752 148.389 167.842 148.516 166.923 148.632C164.918 148.907 162.904 149.161 160.882 149.256C162.28 149.161 163.966 148.865 165.348 149.299C165.744 149.415 165.179 149.606 165.061 149.637C164.126 149.912 163.157 150.029 162.205 150.156C163.789 150.568 167.505 149.256 170.504 149.119C169.957 149.045 170.884 148.632 170.639 148.495C170.74 148.812 172.569 148.495 174.701 147.976C168.55 151.489 162.339 154.906 156.087 158.123C152.995 159.71 149.869 161.212 146.692 162.524C145.066 163.19 143.423 163.804 141.771 164.365C140.229 164.873 138.957 165.37 137.769 166.756C137.684 166.534 137.836 166.237 137.828 166.005C137.819 165.518 136.934 166.375 136.867 166.438C136.041 167.412 135.51 168.322 135.089 169.062C134.651 169.909 134.272 170.734 134.053 171.707C133.867 172.522 133.968 172.765 134.297 173.421C134.297 173.432 134.297 173.442 134.297 173.442C134.128 174.056 133.909 174.807 134.002 175.474C134.12 176.352 134.963 175.897 135.392 175.759C137.17 175.199 138.931 174.564 140.684 173.887C144.24 172.522 147.737 170.945 151.2 169.253C158.126 165.856 164.876 161.952 171.608 157.996C159.845 164.915 171.659 158.101 171.608 157.996L171.6 157.911ZM0.623544 117.971C0.598266 117.622 0.589836 117.283 0.606688 116.956H0.631966V116.977C0.62354 117.326 0.640395 117.664 0.6741 118.014C0.657247 118.014 0.640392 117.992 0.631966 117.982C0.648818 117.992 0.606687 117.633 0.631966 117.982L0.623544 117.971ZM94.6179 126.647C94.6853 126.509 94.7443 126.361 94.8033 126.224C95.233 126.065 95.2752 126.478 95.0308 126.954C94.9213 127.059 94.8117 127.165 94.6938 127.271C94.0618 126.996 93.4383 126.679 92.8063 126.393C93.3456 126.583 94.0534 126.869 94.6179 126.657C94.5421 126.689 94.6853 126.52 94.6179 126.657V126.647ZM111.993 98.4087C112.397 97.0333 112.768 95.6685 113.088 94.2508C112.869 95.4781 112.616 96.6948 112.313 97.8903C112.22 98.0173 112.119 98.176 111.993 98.4087ZM95.0392 126.943C95.469 126.308 95.7049 126.16 95.9493 126.076C95.646 126.372 95.3426 126.657 95.0392 126.943ZM0.631966 116.966C0.631966 116.966 0.615115 116.956 0.606688 116.934C0.606688 116.934 0.606688 116.924 0.606688 116.913L0.623544 116.945V116.956L0.631966 116.966ZM0.969022 114.914C0.969022 114.914 0.985874 114.882 0.9943 114.861C0.9943 114.882 0.977448 114.903 0.969022 114.914ZM0.657244 116.437C0.657244 116.437 0.640388 116.469 0.640388 116.49C0.665666 116.215 0.699383 115.94 0.758367 115.665C0.716236 115.919 0.682522 116.183 0.657244 116.437C0.674096 116.173 0.657244 116.448 0.657244 116.437ZM0.522421 116.723C0.48029 116.797 0.514 116.733 0.606688 116.532L0.522421 116.723ZM80.3018 15.4929C82.8718 17.6724 81.8859 17.0799 82.9561 18.2755C81.8438 17.281 80.7063 16.3499 79.5771 15.4189L80.3102 15.4929H80.3018ZM61.9158 14.7523L61.6209 15.1015C60.635 14.7629 61.0816 14.6783 60.576 14.308C61.0226 14.4455 61.4692 14.5936 61.9074 14.7523H61.9158ZM60.5086 14.2868C60.7951 14.6571 59.784 14.7735 59.5986 15.0274C61.5113 15.8632 61.8316 14.8793 63.4662 15.8632C60.6856 15.4612 64.3257 16.6144 65.0335 17.4502C64.747 16.5509 63.9381 15.7574 62.1602 14.837C69.2129 17.3656 75.9202 21.5764 82.0208 26.6549C82.0292 26.7078 82.0208 26.7501 81.9786 26.7712C82.0376 26.7712 82.0966 26.7712 82.1724 26.7924C82.9392 27.4272 83.6976 28.0831 84.4475 28.7497C84.1526 28.7497 83.8071 28.6122 83.3353 28.2313C84.9025 30.707 88.4837 33.9551 90.4048 34.6428C90.4554 34.6957 90.5144 34.7591 90.5649 34.8226C91.5255 36.6847 88.964 34.2408 87.936 33.8705C92.5367 39.1393 96.9604 44.6515 100.997 50.6081C101.73 50.0262 101.856 50.8726 102.918 51.3804L103.036 52.2268C102.994 51.9411 103.474 52.0787 103.558 51.719C105.538 54.9459 107.342 58.3844 108.867 61.9816C108.378 61.6748 107.856 61.3151 107.333 60.7014C108.344 62.0028 108.951 63.7273 109.499 65.3778C110.046 67.1764 110.636 68.8798 111.251 70.6361C110.678 70.3399 110.173 68.9433 109.869 68.3191C109.414 67.4092 109.077 66.4041 108.589 65.5259C109.086 66.9754 110.24 69.4723 109.861 69.7897L110.543 69.8108C111.319 72.4558 109.92 69.6945 109.768 70.7313C110.013 71.6518 110.299 73.0272 110.982 73.6197C111.546 74.1064 112.195 73.3764 112.717 74.1487C112.894 74.9951 113.046 75.8627 113.189 76.7302C113.147 77.037 113.223 77.3967 113.349 77.8199C113.442 78.4653 113.535 79.1213 113.594 79.7773C113.324 79.3964 113.029 79.7032 112.852 79.8937C113.569 80.9093 113.594 81.6287 113.467 82.5704C113.215 83.9881 113.139 85.3 113.122 86.7495C112.92 86.7812 112.827 86.3052 112.717 85.7973C112.583 85.2895 112.439 84.7393 112.212 84.6335C112.608 86.8341 112.473 90.2832 113.071 90.918C112.894 92.8648 112.473 94.4623 112.178 95.8695C111.799 97.2661 111.454 98.4616 111.218 99.5937C111.277 99.1811 111.529 98.1442 111.1 97.8903C110.687 97.647 110.619 97.2237 110.594 96.663C110.619 97.5835 110.619 98.5039 110.552 99.4244C110.442 100.482 110.333 101.71 110.139 102.958C109.954 103.942 109.794 104.99 109.583 106.005C109.001 107.391 108.361 108.756 107.679 110.078C107.527 109.962 107.409 109.772 107.249 109.38C104.763 112.925 107.266 111.052 104.957 114.512L106.061 112.946C106.019 113.03 106.002 113.115 105.968 113.189C104.957 114.903 103.878 116.543 102.724 118.13C102.64 117.855 102.665 117.506 102.32 118.024C102.134 120.108 98.8816 121.812 97.8536 123.081L98.1907 122.563L96.2021 123.97C96.2021 123.97 96.1852 123.938 96.16 123.928C96.16 124.012 96.1684 124.086 96.1936 124.171C95.8313 124.256 95.4774 124.414 95.1235 124.584L94.9803 124.626C94.896 124.647 94.8033 124.679 94.7106 124.711C94.5337 124.732 94.4073 124.965 94.2135 124.753C94.1208 124.69 94.0365 124.637 93.9354 124.594L93.7922 124.531L93.5815 124.457C92.6883 124.795 91.1379 123.759 90.3206 123.409C89.3937 122.997 88.0118 121.96 87.0007 122.119C87.7843 122.341 88.4078 122.648 89.2673 123.293L88.8797 123.991C87.2366 123.124 88.9977 123.219 87.2787 122.87C87.2197 124.055 89.5454 124.065 90.6829 124.7C90.1858 124.742 89.5285 124.7 88.7786 124.436C89.1662 124.637 89.5538 124.827 89.9414 125.039C89.4105 124.785 88.8797 124.52 88.3573 124.256C88.5005 124.319 88.6438 124.383 88.787 124.436C88.2562 124.15 87.7253 123.875 87.1776 123.642C86.8068 123.452 86.4445 123.261 86.0738 123.071C86.2254 122.944 86.2339 122.775 85.9811 122.499C84.3211 121.23 83.7566 121.41 82.9392 121.41C82.4084 121.113 81.8944 120.817 81.3635 120.51C81.1613 119.96 81.5658 119.601 79.7036 118.511L81.4225 118.934C80.2849 117.093 79.8468 118.511 78.7767 117.664C79.0547 118.13 78.962 118.384 80.2765 119.103C80.2765 119.537 79.2233 119.124 78.7261 118.892L79.021 119.093C79.021 119.093 78.9536 119.114 78.9199 119.124C77.597 118.342 76.2994 117.537 75.0017 116.723C74.9849 116.702 74.968 116.68 74.9512 116.659L75.423 116.797C74.3108 116.31 73.2659 115.644 72.2295 114.956L72.3053 114.903C72.2042 114.861 72.1031 114.829 72.002 114.808C71.5048 114.48 71.0077 114.152 70.519 113.813C70.7802 113.75 70.8223 113.602 70.1398 113.2C70.8645 112.66 72.7519 114.522 73.2828 114.977C72.9373 114.681 72.4149 114.236 72.2716 113.697C72.1115 113.083 73.2322 113.782 73.3081 113.834C73.1143 112.999 71.7576 113.062 71.0498 112.247C71.1257 112.512 70.7802 112.512 70.7718 112.723C71.0498 111.972 67.7889 110.576 67.5024 111.041L69.2045 111.697C69.1202 112.11 68.2692 111.898 67.7636 111.867C63.8454 109.01 60.0536 105.889 56.4388 102.493C56.6157 102.239 57.1213 102.207 56.8095 101.572C55.3518 99.763 55.1917 100.62 54.8125 100.937C51.2988 97.5094 47.9452 93.817 44.8106 89.86C44.8696 89.7437 45.0128 89.7119 45.2656 89.786C44.4314 88.474 44.7011 89.2993 44.6336 89.6273C44.1871 89.0666 43.7405 88.5164 43.3107 87.9345C43.3697 87.7334 43.395 87.416 43.9511 87.9874C43.336 86.7706 43.0242 86.94 42.6956 87.1093C41.8951 86.0407 41.1115 84.9403 40.3363 83.8294C40.2604 83.5014 40.2183 83.1841 40.2183 82.9407C39.4431 81.8404 38.9628 81.4172 38.6005 81.2796C38.2129 80.6871 37.8421 80.0841 37.4629 79.481C37.7579 79.7138 38.0106 79.7984 38.2044 79.5128C37.168 78.8568 36.4939 77.894 35.803 76.7513C34.9098 75.2278 34.0251 73.7043 33.1824 72.1279C31.6152 69.2078 30.1658 66.1819 28.8682 63.0608C26.2476 56.7762 24.1495 49.9415 23.644 42.8211C23.6524 42.6307 23.644 42.4614 23.6103 42.3133C23.5428 41.2553 23.526 40.2079 23.5428 39.1605C23.5428 39.1816 23.5597 39.2134 23.5681 39.2451C23.7198 38.5998 23.7535 38.1977 23.7282 37.912C23.7282 37.6687 23.6777 37.5206 23.6187 37.383C23.6524 36.8223 23.7029 36.2509 23.7704 35.6902C23.9642 36.2615 24.2759 36.6847 24.4192 37.2031C24.318 35.87 24.0653 35.3517 23.8799 34.738C23.9473 34.2619 24.0231 33.7964 24.1074 33.3309C24.2338 33.1722 24.3518 33.3308 24.4866 33.2991C24.4866 32.7807 24.436 32.3787 24.3855 32.019C24.6804 30.7176 25.068 29.448 25.5398 28.189C25.5904 28.189 25.6915 27.9456 26.0286 26.9617C26.9639 24.7822 28.1183 22.7614 29.5255 21.0263C29.8119 20.8781 30.0226 20.8358 30.149 20.8993C30.0984 20.7406 30.1069 20.529 30.149 20.2962C30.9242 19.4287 31.7584 18.6458 32.6432 17.9369C32.8791 17.7888 33.1403 17.6406 33.4099 17.4925C34.202 17.027 35.0362 16.6885 35.0362 16.6885C35.4828 16.9424 35.1373 17.2386 34.598 17.5772C34.0588 17.9475 33.3172 18.4024 32.9802 18.9526C33.6206 18.5082 34.3115 18.1062 34.8929 17.556C35.4238 17.0482 35.8535 16.4134 36.4181 15.9373C36.8141 15.7574 37.286 15.4188 37.7831 15.0485C37.9264 14.9321 38.0781 14.8158 38.2297 14.71C39.1482 14.3291 40.0919 14.0223 41.0441 13.7472C40.9767 13.8001 40.9008 13.8425 40.8334 13.9165C41.8109 13.5568 42.1142 13.7789 42.4007 13.8953C42.6872 14.0223 42.9568 14.0858 43.9006 13.652C43.5972 13.5356 43.1928 13.3769 42.7546 13.3134C43.8837 13.0701 45.0213 12.8796 46.1588 12.7527C46.538 12.7844 46.7318 12.922 46.4874 13.2923C47.507 13.1653 48.2485 12.8797 48.5266 12.594C49.1332 12.5623 49.7315 12.5516 50.3213 12.5516C49.5714 13.0806 47.9704 13.2393 49.7147 13.6731C50.2539 13.4298 50.7932 13.1864 51.3493 13.0066C51.619 13.3769 54.2058 13.5779 54.012 14.308C54.9136 14.3291 55.0906 14.0646 55.8405 14.0011C56.4809 14.5089 56.9359 14.8581 57.8881 14.5513C54.13 13.3346 55.2928 13.2393 51.9308 12.7633C52.015 12.6046 52.4363 12.668 52.8576 12.7315L52.5796 12.668C55.2507 12.8796 57.8965 13.4404 60.5086 14.2656C60.7951 14.6359 57.8965 13.4404 60.5086 14.2656V14.2868ZM0.893176 115.093C0.893176 115.093 0.859474 115.21 0.842621 115.263C0.851047 115.199 0.867898 115.146 0.893176 115.093ZM3.00816 125.367C1.55886 123.431 0.884751 120.997 0.657244 118.373C0.674096 118.394 0.690946 118.416 0.707799 118.437C0.918454 120.553 1.49144 122.912 2.57842 124.499C2.77222 124.891 3.03344 125.356 3.4042 125.906C3.4042 125.906 3.26095 125.716 3.00816 125.367C2.75538 125.039 3.25252 125.716 3.00816 125.367ZM84.9025 146.283C85.7283 145.86 86.5456 145.405 87.3545 144.94C87.3377 144.95 87.3209 144.972 87.3124 144.972C86.5204 145.448 85.7367 145.924 84.9025 146.283C85.7283 145.86 85.0373 146.22 84.9025 146.283ZM91.7867 142.221C90.4048 143.258 89.1409 144.294 88.0118 145.342C86.9501 145.871 86.5962 145.786 86.731 145.564C86.8153 145.416 87.0849 145.183 87.4388 144.897C89.4695 143.723 91.4328 142.401 93.3372 140.951C92.8147 141.406 92.3176 141.882 91.7867 142.231C90.4048 143.268 92.3176 141.882 91.7867 142.231V142.221ZM177.195 146.4C176.875 146.59 176.563 146.77 176.243 146.961C176.386 146.802 176.731 146.611 177.195 146.4Z" fill="#00A9BD"/>
<path d="M75.4492 116.84C75.9466 117.062 76.444 117.231 76.9415 117.294L75.4492 116.84Z" fill="#00A9BD"/>
<path d="M71.0832 112.291C71.0579 112.196 70.9905 112.09 70.8389 111.921C70.9063 112.058 70.9905 112.185 71.0832 112.291Z" fill="#00A9BD"/>
<path d="M109.863 69.8195H109.551C109.702 69.8837 109.804 69.873 109.863 69.8195Z" fill="#00A9BD"/>
<path d="M78.7502 118.934L78.6827 118.891C78.371 118.742 78.4889 118.816 78.7502 118.934Z" fill="#00A9BD"/>
<path d="M78.1348 116.925C78.3793 117.295 78.5984 117.549 78.7924 117.718C78.6828 117.517 78.5141 117.274 78.1348 116.925Z" fill="#00A9BD"/>
<path d="M81.9796 26.7999C81.9122 26.7999 81.8363 26.7999 81.7773 26.8213C81.8785 26.8213 81.9374 26.8213 81.9796 26.7999Z" fill="#00A9BD"/>
<path d="M96.1796 123.96C96.1628 123.834 96.1712 123.697 96.1881 123.58C96.0785 123.781 96.0701 123.918 96.1796 123.96Z" fill="#00A9BD"/>
<path d="M96.4083 122.269C96.7877 122.332 96.2903 122.882 96.1807 123.581C96.5769 122.819 97.8836 121.391 96.4083 122.269Z" fill="#00A9BD"/>
<path d="M77.1946 24.8987L75.2734 23.8936L75.7369 24.6342C76.1076 24.6342 77.4306 25.269 77.203 24.8987H77.1946Z" fill="#00A9BD"/>
<path d="M72.3757 21.4785C71.8027 21.013 71.2466 20.5263 70.6568 20.1031L69.0811 20.3993C71.0528 21.4679 70.4293 20.283 72.3757 21.4785Z" fill="#00A9BD"/>
<path d="M67.3651 18.0415L67.8706 17.9987C67.4409 17.9131 67.3314 17.9452 67.3651 18.0415Z" fill="#00A9BD"/>
<path d="M67.1569 18.4216L66.1963 18.792C66.1963 18.792 66.8535 18.9401 67.5024 19.0988C68.1512 19.2998 68.7916 19.4902 68.7916 19.4902L67.9152 18.8449C67.9911 18.5698 67.4097 18.1889 67.3591 18.0302L66.2721 18.1148C66.5165 18.1572 67.0136 18.2524 67.1569 18.4216Z" fill="#00A9BD"/>
<path d="M65.0342 17.4689C65.0679 17.5641 65.1269 17.6699 65.1437 17.7651C65.1858 17.6911 65.1437 17.5853 65.0342 17.4689Z" fill="#00A9BD"/>
<path d="M37.1777 16.0093L38.3833 15.5755L38.67 15.0465C38.1725 15.3533 37.6751 15.6813 37.1862 15.9987L37.1777 16.0093Z" fill="#00A9BD"/>
<path d="M30.167 20.9516C30.1923 21.0362 30.2175 21.1103 30.2681 21.1738C30.285 21.0574 30.2428 20.9833 30.167 20.9516Z" fill="#00A9BD"/>
<path d="M24.4434 37.243C24.4602 37.518 24.4855 37.7508 24.5108 38.0894C24.536 37.7614 24.5108 37.4969 24.4434 37.243Z" fill="#00A9BD"/>
<path d="M30.7918 20.9428L30.3789 21.7046L30.8845 21.4824L30.7918 20.9428Z" fill="#00A9BD"/>
<path d="M24.6709 39.0096L25.0248 39.7925L24.9237 39.2C24.949 38.7027 24.6962 38.5017 24.6709 39.0096Z" fill="#00A9BD"/>
<path d="M24.4871 43.585L24.4365 41.5007L24.0742 42.8232L24.4871 43.585Z" fill="#00A9BD"/>
<path d="M65.3788 108.491C64.275 107.084 62.792 106.756 61.5449 105.666C62.5224 106.915 64.1992 107.93 65.3788 108.491Z" fill="#00A9BD"/>
<path d="M76.1553 113.465C75.7424 113.454 75.2369 113.264 75.9363 113.793L74.1836 114.036C76.0289 115.612 76.0289 113.962 76.1469 113.465C76.0289 113.962 75.734 113.454 76.1469 113.465H76.1553Z" fill="#00A9BD"/>
<path d="M87.9372 120.003L85.8644 119.421L86.8502 119.96C86.2098 120.14 85.7885 120.172 84.9375 120.151C86.4542 120.659 87.9625 120.944 87.9372 120.003Z" fill="#00A9BD"/>
<path d="M83.1387 119.399C83.3579 119.505 83.6108 119.611 83.8637 119.737C83.6951 119.494 83.6276 119.252 83.1387 119.399Z" fill="#00A9BD"/>
<path d="M84.6422 120.141C84.7602 120.141 84.8445 120.141 84.9457 120.152C84.5748 120.036 84.2122 119.888 83.875 119.74C84.0015 119.92 84.1701 120.131 84.6506 120.141C84.7687 120.141 84.1701 120.131 84.6506 120.141H84.6422Z" fill="#00A9BD"/>
<path d="M89.208 121.294C90.3287 121.845 91.4831 122.31 92.6206 122.786L91.3988 121.971C90.9101 122.522 89.9495 120.839 89.208 121.284V121.294Z" fill="#00A9BD"/>
<path d="M105.429 108.807C105.311 110.309 103.39 113.695 102.21 115.06L102.876 115.176C103.659 114.192 104.14 112.902 104.637 111.674C105.066 110.637 105.513 109.23 106.373 108.627C105.943 108.744 106.87 106.405 105.429 108.807C106.861 106.405 105.311 110.309 105.429 108.807Z" fill="#00A9BD"/>
<path d="M106.372 108.629C106.414 108.619 106.473 108.587 106.549 108.512C106.49 108.544 106.431 108.587 106.372 108.629Z" fill="#00A9BD"/>
<path d="M107.73 107.158C107.696 107.666 108.067 107.137 108.354 106.915C108.835 106.068 109.012 104.926 108.598 105.275C108.936 106.46 107.747 105.952 107.73 107.158C107.739 105.952 107.696 107.666 107.73 107.158Z" fill="#00A9BD"/>
<path d="M111.662 95.0349C111.544 95.8495 111.316 96.9604 111.729 95.8707C112.151 93.4373 111.4 93.8817 111.24 92.6015C110.541 94.4424 111.089 96.4526 111.662 95.0455C111.089 96.4526 111.544 95.8601 111.662 95.0455V95.0349Z" fill="#00A9BD"/>
<path d="M112.684 76.644L111.808 75.3109L111.816 76.0198L112.684 76.644Z" fill="#00A9BD"/>
<path d="M107.038 62.2021C107.038 61.9376 107.038 61.6837 107.038 61.6837L105.85 60.3612C105.85 60.3612 107.08 62.71 107.038 62.7417C107.038 62.7417 107.038 62.4772 107.038 62.2127C107.038 62.4878 107.038 61.9482 107.038 62.2127V62.2021Z" fill="#00A9BD"/>
<path d="M105.967 59.1333C105.967 59.1333 105.706 58.5937 105.436 58.0753C105.15 57.5675 104.854 57.049 104.854 57.049L105.091 57.906C105.478 59.0169 105.605 58.435 105.959 59.1333H105.967Z" fill="#00A9BD"/>
<path d="M103.397 54.4515C103.718 54.8535 104.047 55.2661 104.047 55.2661C104.047 55.2661 103.667 54.6948 103.288 54.1129C102.883 53.5733 102.479 53.0231 102.479 53.0231C102.672 53.2348 102.706 53.457 102.731 53.658C102.731 53.658 103.086 54.0283 103.406 54.4515C103.726 54.8535 103.086 54.0389 103.406 54.4515H103.397Z" fill="#00A9BD"/>
<path d="M152.717 149.13C151.082 149.193 149.464 149.309 147.981 149.499L152.717 149.13Z" fill="#00A9BD"/>
<path d="M171.641 148.98C171.27 148.969 170.874 149.001 170.478 149.044C170.671 149.065 171.017 149.055 171.641 148.98Z" fill="#00A9BD"/>
<path d="M60.2403 140.413L60.5858 140.011C60.2571 140.201 60.1729 140.328 60.2403 140.413Z" fill="#00A9BD"/>
<path d="M141.04 148.779L141.276 148.8C142.321 148.843 141.917 148.811 141.04 148.779Z" fill="#00A9BD"/>
<path d="M142.173 149.996C142.721 150.133 143.47 150.345 144.937 150.472C143.816 150.271 142.931 150.07 142.173 149.996Z" fill="#00A9BD"/>
<path d="M20.5208 26.1758C20.5039 25.8901 20.4955 25.6468 20.4871 25.4669C20.4702 25.8901 20.4871 26.1123 20.5208 26.1758Z" fill="#00A9BD"/>
<path d="M43.9854 152.493C43.4627 152.377 42.9485 152.26 42.4258 152.155C42.94 152.282 43.4627 152.387 43.9854 152.493Z" fill="#00A9BD"/>
<path d="M80.823 149.732C80.6881 149.901 80.5027 150.081 80.2666 150.25C80.8399 149.943 81.0591 149.763 80.823 149.732Z" fill="#00A9BD"/>
<path d="M77.2015 151.711C77.2015 151.711 75.5752 152.219 75.6089 152.409C75.6595 152.653 77.6481 152.124 77.7745 152.102C76.8813 152.081 79.0131 151.224 80.277 150.251C79.2659 150.78 78.2295 151.235 77.2099 151.711C76.8644 151.838 77.5469 151.552 77.2099 151.711H77.2015Z" fill="#00A9BD"/>
<path d="M28.126 7.31156C28.6232 6.7614 29.3478 6.1478 30.0641 5.50242C31.5302 4.28571 33.0975 3.29116 33.0975 3.29116C32.4487 3.29116 31.4797 3.97889 30.873 4.30687C30.6539 4.53963 30.2241 4.88875 29.7523 5.34369C29.5079 5.59761 27.1317 8.28496 27.1064 8.27438C27.1654 8.2638 27.2244 8.23203 27.275 8.17913C27.275 8.17913 27.612 7.82998 28.1176 7.31156C27.612 7.84056 28.6147 6.7614 28.1176 7.31156H28.126Z" fill="#00A9BD"/>
<path d="M54.8642 0.608394L55.572 0.608394C52.0245 -0.185109 50.9881 0.00531083 49.9938 0.058211C48.9827 0.185172 47.9884 0.163999 44.4072 0.375599C46.6317 0.322699 48.8478 0.492003 51.0471 0.862305C52.3194 0.735344 53.5834 0.661294 54.8642 0.608394C55.2939 0.608394 54.4344 0.618974 54.8642 0.608394Z" fill="#00A9BD"/>
<path d="M62.6371 4.271L61.1533 3.96486C62.4938 4.36604 62.7889 4.40825 62.6371 4.271Z" fill="#00A9BD"/>
<path d="M65.6489 4.27681C65.6489 3.95941 61.7812 2.92257 61.4695 2.82735C60.155 2.42531 58.5877 1.73764 57.2227 1.73764C58.2085 1.73764 59.4556 2.50994 60.3993 2.89083C60.3993 3.15533 62.3879 4.01235 62.6407 4.25569C63.7108 4.50961 64.781 4.75291 65.8342 5.07031C65.0675 4.77407 63.517 4.24512 63.003 3.92771C63.2558 3.95945 65.6489 4.171 65.6489 4.26622V4.27681Z" fill="#00A9BD"/>
<path d="M69.8683 7.21631C69.7251 7.04703 69.506 6.84602 69.4049 6.6979C69.3206 6.74022 69.506 6.94123 69.8683 7.21631Z" fill="#00A9BD"/>
<path d="M117.326 95.4754C117.241 97.1576 117.157 98.8398 117.157 98.8398C117.157 98.8398 117.688 93.7508 117.604 93.7403L117.351 92.111C117.351 93.2219 117.41 94.3645 117.326 95.4754C117.385 94.6396 117.241 97.1576 117.326 95.4754Z" fill="#00A9BD"/>
<path d="M106.434 128.318C106.501 128.095 106.434 128.053 106.257 128.17C106.274 128.265 106.333 128.328 106.434 128.318Z" fill="#00A9BD"/>
<path d="M147.273 137.31C147.964 137.235 148.563 137.172 149.456 137.098C148.596 137.087 147.905 137.183 147.273 137.31Z" fill="#00A9BD"/>
<path d="M107.605 127.8C107.605 127.8 107.562 127.134 107.571 127.113L106.551 128.89L107.605 127.8Z" fill="#00A9BD"/>
<path d="M153.836 136.32C153.836 136.32 153.448 136.383 153.052 136.447C152.664 136.489 152.268 136.531 152.268 136.531C150.945 136.521 150.474 136.849 151.813 136.859C151.813 136.859 152.319 136.743 152.824 136.616C153.33 136.468 153.836 136.309 153.836 136.309V136.32Z" fill="#00A9BD"/>
<path d="M163.604 136.213C161.826 136.446 160.048 136.573 158.271 136.689L161.607 136.964L163.604 136.213Z" fill="#00A9BD"/>
<path d="M153.938 157.901C158.076 156.219 163.359 153.076 166.873 150.77C162.247 152.844 158.413 155.69 153.938 157.901Z" fill="#00A9BD"/>
<path d="M154.605 152.471C155.827 152.196 157.52 151.995 154.849 152.048L159.568 150.62C152.448 150.577 154.361 151.985 154.597 152.471C155.818 152.196 154.352 151.974 154.597 152.471H154.605Z" fill="#00A9BD"/>
<path d="M115.01 147.056C113.308 146.824 112.322 146.877 112.744 147.437C114.993 147.935 117.235 148.358 119.501 148.76L116.047 147.882C117.833 147.829 119.08 147.913 121.658 148.136C119.173 147.659 116.721 147.279 115.019 147.056C116.721 147.279 113.317 146.824 115.019 147.056H115.01Z" fill="#00A9BD"/>
<path d="M127.699 149.074C126.949 148.989 126.106 148.82 125.222 148.683C125.946 148.958 126.376 149.264 127.699 149.074Z" fill="#00A9BD"/>
<path d="M122.551 148.177C122.197 148.156 121.953 148.146 121.649 148.135C122.863 148.325 124.076 148.516 125.222 148.685C124.7 148.473 123.992 148.251 122.559 148.177C124 148.251 122.206 148.156 122.559 148.177H122.551Z" fill="#00A9BD"/>
<path d="M107.892 145.331C104.446 144.21 101.008 143.004 97.6204 141.628C97.5699 141.618 97.5193 141.597 97.4688 141.586C97.4688 141.586 97.5025 141.607 97.5446 141.65L97.5783 141.681C98.6484 142.189 99.7186 142.665 100.797 143.141C101.766 142.845 103.148 143.808 104.024 144.21C105.221 144.739 106.603 145.427 107.892 145.331Z" fill="#00A9BD"/>
<path d="M37.5298 153.17C34.0329 152.461 30.9237 151.297 28.8929 149.986C29.23 150.303 28.1177 149.996 27.4352 149.859C26.5926 149.605 26.3735 149.763 30.6372 151.657C33.7296 152.398 36.7967 153.424 39.9144 153.974C43.7483 154.895 47.8435 155.307 50.5315 155.667L49.3518 154.831C45.5937 154.471 41.3553 153.995 37.5298 153.17C34.0329 152.461 41.3553 153.995 37.5298 153.17Z" fill="#00A9BD"/>
<path d="M28.9021 149.987C28.8178 149.902 28.6409 149.776 28.3291 149.607C28.5061 149.733 28.7083 149.86 28.9021 149.987Z" fill="#00A9BD"/>
<path d="M22.489 145.35C22.1267 145.139 18.5792 142.631 18.3433 143.023C18.2927 143.118 18.6129 143.414 18.6129 143.414C19.7673 143.679 20.3319 144.261 20.9723 144.917C21.2588 145.181 24.1321 147.149 24.149 146.789C24.1658 146.43 22.7081 145.551 22.4806 145.35C23.2979 146.059 21.2756 144.631 22.4806 145.35H22.489Z" fill="#00A9BD"/>
<path d="M44.9684 140.877C44.9684 140.877 44.5302 140.781 44.0836 140.697C43.6455 140.58 43.2073 140.464 43.2073 140.464L40.9912 141.014C42.3141 140.982 43.6455 140.993 44.9684 140.877Z" fill="#00A9BD"/>
<path d="M80.5614 134.547C80.8732 134.547 81.2524 134.472 81.2524 134.472C81.2524 134.472 81.699 134.049 81.9517 133.742C82.0866 133.584 82.1877 133.425 82.2719 133.224C82.2635 133.203 82.1708 133.192 82.1877 133.192C82.154 133.192 82.2972 133.213 82.2045 133.245C81.4462 133.764 80.671 134.208 79.8789 134.621C79.9463 134.599 80.0896 134.536 80.1654 134.568C80.2665 134.568 80.4013 134.568 80.5614 134.568C80.4013 134.578 80.8732 134.568 80.5614 134.568V134.547Z" fill="#00A9BD"/>
<path d="M80.9155 132.014C81.4043 132.225 81.9098 132.225 82.3985 132.49C82.3985 132.49 81.5896 132.056 80.7807 131.622C79.4747 130.85 78.1602 130.078 78.1602 130.078L80.1488 131.538C80.3931 131.717 80.6375 131.908 80.9071 132.024C81.0672 132.098 80.8228 131.982 80.9071 132.024L80.9155 132.014Z" fill="#00A9BD"/>
<path d="M70.7889 125.303C72.1202 126.118 73.4768 126.879 73.4768 126.879C71.1681 125.451 68.9014 123.906 66.6348 122.351C67.3847 122.838 67.7723 123.229 68.1515 123.621C68.1515 123.621 69.4744 124.467 70.7973 125.314C72.1287 126.128 69.4744 124.467 70.7973 125.314L70.7889 125.303Z" fill="#00A9BD"/>
</svg>
