<svg width="60" height="57" viewBox="0 0 60 57" fill="none" xmlns="http://www.w3.org/2000/svg">
<path d="M9.60039 28.2542C9.60039 17.6306 18.7204 9.04126 30.0004 9.04126C41.2804 9.04126 50.4004 17.6306 50.4004 28.2542C50.4004 38.8778 41.2804 47.4671 30.0004 47.4671C18.7204 47.4671 9.60039 38.8778 9.60039 28.2542ZM48.0004 28.2542C48.0004 18.8737 39.9604 11.3016 30.0004 11.3016C20.0404 11.3016 12.0004 18.8737 12.0004 28.2542C12.0004 37.6346 20.0404 45.2067 30.0004 45.2067C39.9604 45.2067 48.0004 37.6346 48.0004 28.2542Z" fill="white"/>
<path d="M27.9612 37.6345L37.9213 28.254L27.9612 18.8736L29.6413 17.2914L41.2812 28.254L29.6413 39.2167L27.9612 37.6345Z" fill="white"/>
<path d="M39.5996 27.1239V29.3842H19.1996V27.1239H39.5996Z" fill="white"/>
</svg>
