<svg width="50" height="50" viewBox="0 0 50 50" fill="none" xmlns="http://www.w3.org/2000/svg">
<path d="M19.247 48.8658C19.381 48.8296 19.4767 48.7452 19.5532 48.6607C24.9116 43.6052 28.5093 37.8016 29.9637 31.7809C30.1742 30.9363 31.8774 30.6708 33.2361 30.6105C36.0301 30.4778 38.8241 30.3451 41.5989 30.2244C44.7182 30.0796 48.2968 29.778 50 28.125C46.0578 25.4464 42.1156 22.7679 38.1925 20.1013C37.9055 19.9083 37.6184 19.7032 37.5419 19.4498C37.4653 19.1602 37.6567 18.8827 37.8481 18.6173L43.3212 11.2331C42.4027 11.1607 41.5032 11.1004 40.5847 11.028C39.4364 9.90589 38.2691 8.79585 37.1209 7.67375C34.7096 9.20608 32.2984 10.7505 29.8871 12.2949C29.5618 12.5 29.1791 12.7292 28.7198 12.7051C28.2414 12.693 27.8969 12.4035 27.6098 12.1501L22.5003 7.49276C22.2898 7.28764 21.8879 7.60135 21.6774 7.80647C21.4669 8.01158 20.7971 7.72201 21.1798 7.69788C22.0601 7.10666 21.0842 6.17761 20.1656 5.61052C19.8977 5.45367 19.5723 5.28475 19.2087 5.33301C19.0748 5.35714 18.9791 5.4416 18.96 5.52606C16.7784 3.40251 14.0035 1.53234 10.8077 0C8.81742 1.03764 9.20017 2.99228 9.71687 4.58494C11.3052 9.36293 12.53 14.1892 13.4294 19.0275C13.6782 20.3547 13.6973 21.9715 11.9367 22.7196C8.45381 24.2157 5.16228 25.8687 2.06211 27.6665C1.1244 28.2215 0.129268 28.861 0.0144467 29.6694C-0.176922 30.8277 1.56453 31.8171 3.3634 32.0584C5.18141 32.2876 7.03768 31.986 8.85568 31.7568C10.9416 31.4913 13.0467 31.3345 15.1517 31.2741C15.9172 36.1728 15.9172 41.1197 15.1517 46.0183C14.9412 47.3697 14.6925 48.8296 15.7833 50C16.7018 49.9397 17.6204 49.8914 18.5581 49.8311C17.4673 49.1313 17.6013 47.8402 18.8069 47.237C18.9791 47.5507 18.6347 47.8764 18.5007 48.2022C18.3667 48.528 18.7686 48.9985 19.247 48.8538V48.8658ZM44.4503 25.4947C44.6608 25.5068 44.6608 25.7481 44.4503 25.7601C44.2398 25.7601 44.2398 25.5068 44.4503 25.4947ZM39.8575 13.1153C39.9149 13.2601 39.7618 13.4049 39.5896 13.5256C39.3599 13.4291 39.2642 13.2239 39.3599 13.0671H39.3216C39.3599 12.9102 39.7809 12.9585 39.8383 13.1153H39.8575ZM37.2357 16.3248C37.5228 16.6988 37.5036 17.1573 37.1974 17.5314V17.5796C37.1974 17.5796 37.14 17.5796 37.1209 17.5796C36.719 17.5796 36.4128 17.2659 36.4894 17.0005C36.5659 16.723 36.9104 16.5058 37.2357 16.3127V16.3248ZM29.1408 31.1414C28.9303 31.3465 28.3753 31.3345 28.1648 31.1414C28.3753 30.9363 28.9303 30.9363 29.1408 31.1414ZM23.859 41.735C23.6868 41.2042 23.7442 40.6371 24.0313 40.1182C24.3566 40.6612 24.6054 41.3851 23.859 41.735ZM27.2271 33.265C27.3037 33.1202 27.7247 33.2046 27.6673 33.3374C27.5142 33.3374 27.3611 33.3494 27.208 33.3615L27.2462 33.265H27.2271ZM27.1888 34.8094H27.1123C27.0932 34.9059 26.9592 34.9541 26.8061 34.9541C26.5573 34.9541 26.2703 34.8456 26.2511 34.6766C26.232 34.3991 26.6339 34.194 27.0166 34.0492C27.2271 34.2664 27.3037 34.556 27.208 34.8094H27.1888ZM26.4616 19.3653L26.6147 19.3412C26.6147 19.5946 26.3277 19.8359 25.9641 19.9324C25.5048 19.7635 25.9832 19.2085 26.4616 19.3653ZM26.1937 35.7867L25.5239 35.9315L25.3708 35.9073C25.1986 35.6178 26.1363 35.485 26.1937 35.7867ZM25.6196 37.1863C25.8493 37.3311 25.7919 37.6086 25.5048 37.7172C25.256 37.5724 25.0264 37.4155 24.7776 37.2708C24.9307 37.0898 25.39 37.0536 25.6196 37.1984V37.1863ZM24.2418 23.1902C23.8973 23.4315 23.4763 23.6124 23.0361 23.7934C22.8256 23.8779 22.5768 23.9503 22.3472 23.9503C22.2132 23.9503 22.0793 23.9262 21.9836 23.8538C21.7157 23.6486 22.0219 23.347 22.3281 23.166C23.2466 22.611 24.1652 22.0439 25.0838 21.4889C25.2177 22.1042 24.8924 22.7437 24.2418 23.1902ZM23.0935 18.1347C23.2849 18.1347 23.304 18.388 23.0935 18.4001C22.883 18.4001 22.883 18.1467 23.0935 18.1347ZM18.3285 10.0748C20.0699 11.6313 21.7922 13.1998 23.5337 14.7563C23.7059 14.9011 23.8782 15.07 23.8782 15.251C23.8782 15.4561 23.7059 15.6371 23.5337 15.806C22.7108 16.5541 21.754 17.2177 20.644 17.7968C20.089 17.64 19.9742 17.1815 19.9168 16.7954C19.6681 15.0458 19.1131 13.3084 18.2711 11.6313C18.0031 11.1124 17.7544 10.485 18.3285 10.0869V10.0748ZM15.4962 9.00096C15.5345 8.71139 15.7258 8.42181 15.5345 8.15637H15.5536C15.611 7.90299 15.3622 7.63755 14.9986 7.54102C15.2857 7.23938 16.0512 7.54102 16.2425 7.8668C16.4339 8.20463 16.5105 8.639 17.0463 8.75965C16.5487 8.80791 16.721 9.38706 16.2617 9.53185C16.2043 9.55598 16.1469 9.55598 16.0895 9.55598C15.745 9.55598 15.477 9.25434 15.4962 9.01303V9.00096ZM18.2328 46.2717C18.0223 46.2717 18.0223 46.0183 18.2328 46.0063C18.4433 46.0063 18.4433 46.2596 18.2328 46.2717ZM18.1945 19.0034C17.7926 18.4846 17.8883 17.8451 18.405 17.3624C17.7926 16.9643 17.6013 16.3851 17.4482 15.8422C17.1994 14.9614 16.9506 14.0927 16.7018 13.2119C16.5105 12.5603 16.3382 11.9088 16.1469 11.2572C16.0895 11.028 16.1851 10.666 16.5679 10.7143C16.7975 10.7384 16.8741 10.9194 16.9123 11.0642C17.3716 12.7654 17.85 14.4546 18.3093 16.1438C18.3859 16.4455 18.8834 16.6264 19.1896 16.8678C19.4958 17.1091 19.4575 17.6038 18.96 17.5917C19.4001 17.7244 19.4767 18.1226 19.247 18.388C19.0174 18.6535 18.5964 18.8224 18.1945 18.9913V19.0034Z" fill="#FFE093"/>
</svg>
