<svg width="314" height="8" viewBox="0 0 314 8" fill="none" xmlns="http://www.w3.org/2000/svg">
<path d="M254.196 0.720761C239.554 0.457081 227.065 0.140663 214.403 0.0351908C204.756 -0.0527026 194.936 0.0351913 185.289 0.175821C170.474 0.404344 155.745 0.773495 141.016 1.00202C121.55 1.30086 102.083 1.49422 82.6169 1.82822C75.8123 1.93369 69.0934 2.28526 62.4609 2.56652C58.5849 2.72473 54.7948 3.0763 50.8326 3.18178C34.2947 3.63882 18.9625 4.9748 3.19966 5.94163C1.73534 6.02952 0.356825 6.59204 0.012185 6.97877C-0.160156 7.18972 1.82094 7.6116 3.19908 7.69949C5.86915 7.89286 8.79788 8.01591 11.5542 7.99833C20.0815 7.98076 28.6947 7.9456 37.2221 7.78739C48.5919 7.55887 59.8755 7.18971 71.1592 6.92603C75.1214 6.83814 79.1696 6.8733 83.1317 6.89088C91.659 6.92604 100.273 7.03151 108.8 7.01393C128.266 6.96119 147.733 6.83814 167.199 6.75025C180.98 6.69751 194.676 6.67993 208.457 6.66235C228.526 6.64477 248.596 6.60962 268.665 6.69751C281.585 6.75025 293.472 5.85373 305.617 5.18574C308.201 5.04512 310.527 4.60565 312.508 4.20134C314.92 3.70913 314.145 3.12904 312.078 2.63684C311.389 2.46105 310.442 2.25011 309.408 2.19737C298.297 1.67001 287.789 0.615287 276.074 0.685602C268.236 0.755916 260.226 0.720761 254.196 0.720761Z" fill="#FFE093"/>
</svg>
