<svg width="124" height="78" viewBox="0 0 124 78" fill="none" xmlns="http://www.w3.org/2000/svg">
<path d="M104.82 69.3482C104.85 69.3945 104.737 69.5148 104.408 69.7278C106.688 68.8344 105.628 69.1445 105.283 69.1538C106.405 68.677 107.527 68.1956 108.634 67.6957C108.762 67.7189 108.767 67.7976 107.815 68.2651C109.704 67.5522 109.925 67.293 110.054 67.0431C112.123 66.0849 114.161 65.0805 116.138 63.9834C116.539 63.8399 116.884 63.7196 117.147 63.6409C118.691 62.7429 119.55 62.1319 120.003 61.6829C120.039 61.6505 120.065 61.6228 120.096 61.5904C121.028 60.9238 121.877 60.1832 122.587 59.3223C122.546 59.3917 122.505 59.4611 122.474 59.5306C122.294 59.7944 122.237 59.9703 122.386 59.9981C122.731 59.5815 123.02 59.0769 123.272 58.6094C123.539 58.1095 123.925 57.4939 123.987 56.9338C124.049 56.5404 123.884 56.3089 123.56 56.0867V56.0821C122.608 55.4434 121.213 55.3785 120.075 55.2767C118.583 55.1425 117.147 54.8509 115.685 54.5732C112.231 53.9205 108.798 53.24 105.432 52.2958C103.749 51.8283 102.076 51.3006 100.434 50.7266C99.5027 50.4026 98.6483 49.8333 97.6961 50.3424C96.327 51.0738 95.1792 52.6383 94.6954 53.9807C94.4843 54.5731 94.5152 54.8185 95.1586 55.0545C96.6718 55.61 98.2005 56.1238 99.7497 56.5959C102.925 57.568 106.158 58.3086 109.431 58.9335C104.125 60.012 98.6328 60.535 93.2027 60.7202C93.213 60.7202 93.2284 60.7202 93.2387 60.7202C91.216 60.5813 90.7167 60.6831 90.2689 60.7803C89.4402 60.785 88.6167 60.785 87.788 60.7711C88.5858 60.66 89.188 60.4424 89.9601 60.336C87.7777 60.5211 87.0829 60.6044 86.1616 60.7294C85.4513 60.7063 84.741 60.6739 84.0358 60.6368C83.7991 60.5767 83.9844 60.5072 83.8814 60.4424C83.2432 60.4702 82.6049 60.4841 81.9718 60.5211C79.8873 60.3776 77.8027 60.1925 75.7388 59.9333C75.7748 59.9055 75.4608 59.8546 73.8241 59.6694C70.3241 59.151 66.8292 58.4335 63.3859 57.5402C63.5866 57.3643 63.7822 57.1791 63.9829 56.994C64.2866 56.7626 64.5337 56.582 64.6984 56.4617C64.7962 56.3969 64.8631 56.3599 64.9197 56.3367C64.8837 56.2164 64.9763 56.0729 65.0278 55.9664C66.4947 54.4389 67.6888 52.7864 68.6462 51.0553C68.7337 50.9118 68.8263 50.7636 68.9189 50.6155C69.5314 49.5416 70.005 48.4076 70.4734 47.2782C70.741 46.9634 70.705 47.2782 70.6483 47.4957C70.5145 48.0049 70.3189 48.5094 70.1131 49.0001C69.7065 49.9721 69.2175 50.9118 68.7594 51.8699C69.3873 50.8192 69.9895 49.7361 70.3756 48.5835C70.7307 47.5328 70.8851 46.445 71.0859 45.3665C71.1116 45.1628 71.1373 44.936 71.1631 44.6907C71.4101 43.7788 71.477 42.5244 71.4564 41.2885C71.5645 39.599 71.5079 37.8956 71.2814 36.1923C71.3072 36.2895 71.3329 36.382 71.3586 36.4746C71.23 35.6507 71.1219 34.8268 71.0961 33.9936C71.0653 32.9984 70.7925 32.1051 70.427 31.17C70.5197 31.67 70.5866 32.3041 70.6741 33.0077C70.1954 31.0682 69.5057 29.1843 68.6462 27.3559C68.4145 26.7773 68.3528 26.5042 68.7079 26.8514C68.1366 25.7914 67.5756 24.5786 66.6594 23.7131C66.0984 22.8104 65.4859 21.9356 64.8425 21.0747C65.1307 21.3478 65.3932 21.6394 65.6609 21.9264C65.7226 22.005 66.4072 23.0234 66.6028 22.991C66.6543 22.9817 65.9954 21.769 65.9594 21.7088C65.2697 20.9636 64.5851 20.223 63.8594 19.5055C63.8131 19.3852 63.5918 19.0611 63.2829 18.6492C62.7476 17.9826 62.2123 17.3207 61.6616 16.6634C61.5998 16.5894 60.7094 15.4461 60.8484 15.4322C59.5719 14.275 59.2631 14.1824 58.1462 13.3261C57.2969 12.317 56.3087 11.4514 55.1146 10.7895C55.4697 11.0765 55.794 11.345 56.0925 11.5903C58.141 13.3909 59.9888 15.3026 61.8057 17.2883C62.1609 17.7003 62.5778 18.1909 63.0822 18.7742C63.0307 18.7556 62.9381 18.6723 62.8248 18.5566C59.4484 14.6592 55.3204 11.2293 50.8837 8.40108C50.5337 8.01689 52.0933 8.83154 52.4021 8.87783C50.8477 7.74841 49.8955 7.31794 49.0308 6.89672C48.1403 6.5079 47.3322 6.1052 45.8447 5.27665C46.2668 5.4618 46.694 5.65157 47.1161 5.84135C47.2138 5.88301 47.4867 6.05889 47.6102 6.03575C47.533 6.04964 46.7969 5.51272 46.694 5.45255C46.2565 5.20259 45.8087 4.97114 45.3558 4.74433C44.4756 4.29996 43.5697 3.888 42.6947 3.43438C43.3947 4.01298 44.2389 4.46661 45.0367 4.92949C46.0455 5.51272 47.0492 6.09595 48.0425 6.69769C43.5337 4.15186 38.5256 2.22627 33.2551 1.41624C28.0874 0.620087 22.4823 0.999664 18.097 3.8047C15.1272 5.69788 13.2742 8.49364 12.6 11.6921C12.5794 11.7292 12.5639 11.743 12.5485 11.7245C12.5485 11.7847 12.5485 11.8495 12.5536 11.9189C12.25 13.4788 12.1934 15.1036 12.3169 16.7375C12.1779 16.3348 12.0595 15.7238 12.075 14.7656C11.7404 17.293 12.1676 19.9175 12.8728 22.3661C13.5676 24.7592 14.5764 27.2587 16.1154 29.3231C16.2286 29.5499 16.3419 29.7768 16.4603 30.0036C16.4705 30.0267 16.6919 30.5822 16.6147 30.5868C16.4757 30.6007 16.2183 30.1008 16.1617 30.0267C15.8632 29.5824 15.5904 29.1195 15.3073 28.6659C14.8286 27.7447 14.3808 26.8051 13.8507 25.9025C14.9933 28.8695 16.4448 31.7394 18.2308 34.4426C19.986 37.0903 22.0911 39.4741 24.2992 41.8255C25.8794 43.3252 27.4595 44.8203 29.1786 46.1997C30.9132 47.5883 32.7404 48.8659 34.5779 50.1388C35.2624 50.5692 35.9573 51.0136 36.6727 51.458C36.9146 51.3191 37.244 51.4395 37.7433 51.6802C38.2528 51.907 38.9323 52.2449 39.833 52.5689L40.7234 53.2817C40.43 53.041 41.1146 53.2447 40.9705 53.004C44.8977 55.1379 49.0256 56.9847 53.2102 58.5539C51.7124 59.2482 50.1631 59.8361 48.5778 60.3499C49.283 59.9194 49.9881 59.4704 50.719 59.0769C50.4719 59.2066 50.2197 59.3315 49.9624 59.4519C49.0565 59.8407 48.1094 60.1971 47.1418 60.4563C45.8653 60.8544 44.6455 61.0951 43.4205 61.3497C40.9448 61.7848 38.3867 62.1134 34.6962 62.4189C35.2779 62.206 35.983 62.1967 36.5955 62.1088C37.522 61.9699 38.4484 61.8496 39.3698 61.6876C40.8624 61.4284 42.3653 61.146 43.8322 60.7711C42.6278 61.021 40.9448 61.3682 39.5139 61.5533C39.0095 61.6366 38.4948 61.6922 37.9749 61.7246C37.7484 61.7385 36.9867 61.8866 36.8065 61.7061C36.647 61.8357 36.4977 61.9653 36.3381 62.0903C31.9529 62.3356 36.8992 61.7478 35.4529 61.595C34.0477 61.6876 32.6426 61.7107 31.2374 61.7848C30.836 61.8079 30.1205 61.7801 29.8477 62.1042C29.7705 62.2014 29.7448 62.3171 29.6418 62.4004C29.3999 62.5948 28.9985 62.5995 28.6948 62.618C27.2639 62.5115 25.8433 62.3541 24.4382 62.1366C24.0985 62.0579 23.6867 61.9838 23.2235 61.9237C22.158 61.7339 21.0977 61.5163 20.058 61.2617C20.2022 61.2617 20.3 61.2525 20.3514 61.2293C20.511 61.1506 20.2845 60.9794 20.1301 60.8683C19.0389 60.7988 17.9735 60.6183 16.9595 60.2434C15.8426 59.8268 14.8081 59.2852 13.722 58.8177C12.8213 58.3549 11.7095 57.8457 10.3301 57.1004C10.3404 56.9708 11.0095 57.2625 11.725 57.5726C12.4661 57.8549 13.2639 58.1327 13.4801 58.1003C10.9066 57.1375 8.63159 55.7072 6.31028 54.3417C5.75439 53.9899 5.33234 53.7538 5.11102 53.7122C3.81397 52.6661 2.63014 51.5274 1.44632 50.3841L1.35882 50.31C1.32279 50.2823 1.26102 50.2452 1.20441 50.2128C1.09632 50.1526 0.952201 50.0971 0.761761 50.1295C0.669114 50.1388 0.597059 50.1851 0.525001 50.2221C0.468383 50.2637 0.422056 50.31 0.375732 50.3563C0.0926446 50.7359 0.051473 51.2497 0.0669141 51.6894L0.0411773 51.6755L0.030881 51.6663V51.6616C-0.0257365 51.6153 0.030882 51.6663 0.0720583 51.7079C0.0720583 51.7311 0.0720583 51.7542 0.0720583 51.7773C0.0514701 51.7588 0.0205882 51.7311 0 51.7126L0.0257368 51.7357L0.0669141 51.7773C0.128679 52.7725 0.401467 53.814 1.01911 54.6565C1.6522 55.5313 2.61985 56.3228 3.46911 57.031C2.96985 56.6144 2.48088 56.1747 1.94044 55.7998C1.84264 55.7303 1.66249 55.5776 1.51838 55.6239C1.45147 55.647 1.40514 55.6979 1.2147 55.6239C0.911027 55.4757 0.663972 55.2813 0.437502 55.0499C0.380885 54.9851 0.324263 54.9203 0.272793 54.8555C0.422057 55.0407 0.581617 55.2166 0.756616 55.3832C0.833822 55.4572 0.90073 55.5128 0.962495 55.5544L1.15294 55.7072C4.38529 58.2808 7.71542 60.7063 11.6117 62.4328C13.7941 63.5854 16.1257 64.4463 18.5242 65.1684C18.4933 65.261 18.3286 65.3166 17.9529 65.3675C21.4117 66.5432 22.0036 66.4691 22.5029 66.4691C23.6301 66.395 24.8345 66.6959 25.9308 66.8672C25.4676 66.7839 25.0044 66.6959 24.5411 66.6126C24.2941 66.5663 23.9801 66.4506 23.7279 66.4506C23.7845 66.4598 23.8411 66.4645 23.8977 66.4691C27.1867 67.0755 30.5477 67.3717 33.9036 67.3717C33.6977 67.4874 33.3271 67.58 34.3411 67.543C35.7205 67.2282 37.208 67.3023 38.6183 67.1866C39.097 67.1634 39.5859 67.1449 40.08 67.131C41.2072 67.0292 42.3396 66.9274 43.369 66.8394C44.3933 66.7052 45.3094 66.52 46.0043 66.358L45.0109 66.6218C45.0109 66.6218 46.1072 66.4645 47.1984 66.2747C48.2793 66.0294 49.3602 65.7887 49.3602 65.7887C49.4065 65.7887 49.3602 65.8072 49.3911 65.8072C49.4528 65.7563 49.5146 65.7053 49.5506 65.6591C50.8786 65.5387 52.2528 65.0573 53.4933 64.6361C54.9447 64.1455 56.5094 63.465 57.7602 62.6503C58.2337 62.2152 58.8616 61.8912 59.4021 61.5302C59.5359 61.5209 59.7006 61.5904 59.8653 61.6274C61.605 62.1134 63.355 62.5994 65.1256 63.0068C66.5667 63.3354 68.0388 63.7427 69.5263 63.8446C67.9462 63.5946 66.4175 63.2336 64.8785 62.7939L65.28 62.5161C66.9476 62.9235 66.9785 63.016 66.9939 63.0808C67.0145 63.1364 67.0197 63.1966 68.6616 63.4187C68.4042 63.0716 67.6476 62.9883 67.2359 62.8864C66.6079 62.729 65.9748 62.6087 65.3417 62.4884C64.1322 62.2569 62.9175 62.007 61.7388 61.6552C62.9278 61.8172 64.0962 62.081 65.2645 62.3125C64.4925 62.1366 63.7359 61.919 62.9793 61.7015C63.9315 61.9607 64.894 62.206 65.8616 62.4374C65.6609 62.3958 65.4653 62.3541 65.2645 62.3125C66.3454 62.567 67.4212 62.8587 68.5175 63.0484C69.2587 63.2058 69.9998 63.3678 70.741 63.5113C70.5403 63.553 70.5866 63.6363 71.1888 63.8168C72.702 64.1547 74.205 64.4602 75.7645 64.5389C76.2844 64.5482 76.7322 64.5574 77.252 64.5667C78.3432 64.7102 79.4344 64.8351 80.5307 64.9462C81.1998 65.2008 80.6851 65.386 84.674 65.7054L81.3491 65.6683C84.5145 66.3904 84.4373 65.7331 86.8667 65.9275C85.6726 65.6868 84.5145 65.5896 83.2946 65.4924C83.0321 65.298 85.1527 65.3952 86.1718 65.3952L85.5233 65.3536C85.5799 65.3443 85.6263 65.3351 85.6777 65.3258C88.5086 65.4739 91.3395 65.5156 94.1704 65.46C94.1806 65.46 94.2064 65.46 94.2167 65.46C93.913 65.4924 93.6093 65.5248 93.3057 65.548C95.5446 65.3998 97.7887 65.3536 100.023 65.1823L99.9917 65.2008C100.059 65.1916 100.115 65.1777 100.177 65.1684C101.356 65.0805 102.529 64.974 103.698 64.8351C103.445 64.9416 103.62 65.0018 104.897 64.775C104.578 64.9972 104.017 65.0481 103.636 65.1036C103.08 65.1823 102.524 65.2378 101.963 65.2888C100.738 65.4091 99.5078 65.5202 98.2726 65.5619C99.127 65.5202 100.156 65.3906 101 65.5804C101.242 65.6313 100.898 65.7146 100.825 65.7285C100.254 65.8488 99.6623 65.8998 99.0806 65.9553C100.048 66.1358 102.318 65.5619 104.15 65.5017C103.816 65.4693 104.382 65.2888 104.233 65.2286C104.295 65.3674 105.411 65.2286 106.714 65.0018C102.956 66.5385 99.163 68.0336 95.3439 69.4408C93.4549 70.1351 91.5454 70.7924 89.6049 71.3663C88.6115 71.658 87.6079 71.9264 86.5991 72.1718C85.6571 72.3939 84.8799 72.6115 84.1542 73.2179C84.1027 73.1207 84.1954 72.9911 84.1902 72.8892C84.1851 72.6763 83.6446 73.0512 83.6035 73.079C83.0991 73.5048 82.7748 73.9029 82.5174 74.2269C82.2498 74.5972 82.0182 74.9583 81.8844 75.3841C81.7711 75.7405 81.8329 75.847 82.0336 76.134C82.0336 76.1386 82.0336 76.1433 82.0336 76.1433C81.9307 76.4117 81.7969 76.7404 81.8535 77.032C81.9255 77.4162 82.4402 77.2171 82.7027 77.157C83.7888 76.9116 84.8645 76.6339 85.9351 76.3377C88.1071 75.7405 90.2431 75.0508 92.3586 74.3102C96.5895 72.8244 100.712 71.1164 104.825 69.3852C97.6395 72.4125 104.856 69.4315 104.825 69.3852L104.82 69.3482ZM0.380884 51.8746C0.365443 51.7218 0.360294 51.5737 0.370588 51.4302H0.386028V51.4395C0.380881 51.5922 0.391177 51.7403 0.411765 51.8931C0.401471 51.8931 0.391175 51.8838 0.386028 51.8792C0.396323 51.8838 0.370587 51.7264 0.386028 51.8792L0.380884 51.8746ZM57.7962 55.6702C57.8373 55.61 57.8734 55.5452 57.9094 55.485C58.1719 55.4156 58.1977 55.5961 58.0484 55.8044C57.9815 55.8507 57.9146 55.897 57.8425 55.9433C57.4565 55.8229 57.0756 55.6841 56.6896 55.5591C57.019 55.6424 57.4513 55.7674 57.7962 55.6748C57.7499 55.6887 57.8373 55.6146 57.7962 55.6748V55.6702ZM68.4094 43.316C68.6564 42.7142 68.8829 42.1171 69.0785 41.4968C68.9447 42.0338 68.7903 42.5661 68.605 43.0891C68.5484 43.1447 68.4866 43.2141 68.4094 43.316ZM58.0535 55.7998C58.316 55.522 58.4602 55.4572 58.6094 55.4202C58.4241 55.5498 58.2388 55.6748 58.0535 55.7998ZM0.386028 51.4348C0.386028 51.4348 0.375735 51.4302 0.370588 51.421C0.370588 51.421 0.370588 51.4163 0.370588 51.4117L0.380884 51.4256V51.4302L0.386028 51.4348ZM0.591915 50.5368C0.591915 50.5368 0.602208 50.523 0.607355 50.5137C0.607355 50.523 0.597062 50.5322 0.591915 50.5368ZM0.401469 51.2034C0.401469 51.2034 0.391173 51.2173 0.391173 51.2265C0.406614 51.1062 0.42721 50.9858 0.463239 50.8655C0.437504 50.9766 0.41691 51.0923 0.401469 51.2034C0.411763 51.0877 0.401469 51.208 0.401469 51.2034ZM0.319114 51.3284C0.293379 51.3608 0.31397 51.333 0.370588 51.2451L0.319114 51.3284ZM49.0513 7.04021C50.6212 7.99374 50.019 7.73454 50.6727 8.25758C49.9933 7.82248 49.2984 7.41515 48.6087 7.00781L49.0565 7.04021H49.0513ZM37.8205 6.71619L37.6404 6.86895C37.0381 6.72083 37.3109 6.6838 37.0021 6.5218C37.2749 6.58197 37.5477 6.64677 37.8153 6.71619H37.8205ZM36.9609 6.51253C37.1359 6.67454 36.5183 6.72546 36.4051 6.83655C37.5734 7.20222 37.769 6.77174 38.7676 7.20221C37.069 7.02631 39.2926 7.53085 39.7249 7.89653C39.5499 7.50308 39.0558 7.15594 37.9698 6.75323C42.2778 7.85951 46.3749 9.70176 50.1013 11.9236C50.1065 11.9467 50.1013 11.9652 50.0756 11.9745C50.1116 11.9745 50.1477 11.9745 50.194 11.9837C50.6624 12.2615 51.1256 12.5484 51.5837 12.8401C51.4036 12.8401 51.1925 12.7799 50.9043 12.6133C51.8616 13.6964 54.0491 15.1174 55.2227 15.4183C55.2535 15.4414 55.2896 15.4692 55.3204 15.497C55.9072 16.3116 54.3425 15.2424 53.7146 15.0804C56.5249 17.3855 59.2271 19.7971 61.6925 22.4031C62.1403 22.1486 62.2175 22.5188 62.866 22.741L62.9381 23.1113C62.9123 22.9863 63.2057 23.0465 63.2572 22.8892C64.4668 24.3009 65.5682 25.8053 66.4998 27.3791C66.2013 27.2448 65.8822 27.0874 65.5631 26.819C66.1807 27.3883 66.5513 28.1428 66.8859 28.8649C67.2204 29.6518 67.5807 30.397 67.9565 31.1654C67.6065 31.0358 67.2976 30.4248 67.1123 30.1517C66.8344 29.7536 66.6285 29.3139 66.33 28.9297C66.6337 29.5638 67.3388 30.6563 67.1072 30.7951L67.5241 30.8044C67.9976 31.9615 67.1432 30.7534 67.0506 31.2071C67.1998 31.6098 67.3748 32.2115 67.7917 32.4707C68.1366 32.6837 68.5329 32.3643 68.852 32.7022C68.9601 33.0725 69.0528 33.452 69.1403 33.8316C69.1145 33.9658 69.1609 34.1232 69.2381 34.3083C69.2947 34.5907 69.3513 34.8777 69.3873 35.1647C69.2226 34.998 69.0425 35.1323 68.9344 35.2156C69.3719 35.66 69.3873 35.9747 69.3101 36.3867C69.1557 37.0069 69.1094 37.5809 69.0991 38.215C68.9756 38.2289 68.9189 38.0206 68.852 37.7985C68.7697 37.5763 68.6822 37.3356 68.5432 37.2893C68.7851 38.2521 68.7028 39.761 69.0682 40.0388C68.9601 40.8905 68.7028 41.5894 68.5226 42.205C68.291 42.816 68.08 43.3391 67.9359 43.8344C67.9719 43.6539 68.1263 43.2002 67.8638 43.0891C67.6116 42.9827 67.5704 42.7975 67.555 42.5522C67.5704 42.9549 67.5704 43.3576 67.5292 43.7603C67.4623 44.2232 67.3954 44.7601 67.277 45.3063C67.1638 45.7368 67.066 46.1951 66.9373 46.6394C66.5822 47.2458 66.191 47.8429 65.7741 48.4215C65.6814 48.3706 65.6094 48.2873 65.5116 48.116C63.9932 49.6666 65.5219 48.8473 64.1116 50.3609L64.7859 49.6759C64.7601 49.7129 64.7498 49.7499 64.7292 49.7823C64.1116 50.5322 63.4528 51.2497 62.7476 51.944C62.6962 51.8237 62.7116 51.6709 62.5006 51.8977C62.3873 52.8096 60.4006 53.5548 59.7726 54.1103L59.9785 53.8835L58.7638 54.4991C58.7638 54.4991 58.7535 54.4852 58.7381 54.4806C58.7381 54.5176 58.7432 54.55 58.7587 54.587C58.5373 54.6241 58.3212 54.6935 58.105 54.7676L58.0175 54.7861C57.966 54.7953 57.9094 54.8092 57.8528 54.8231C57.7447 54.8324 57.6675 54.9342 57.5491 54.8416C57.4925 54.8138 57.441 54.7907 57.3793 54.7722L57.2918 54.7444L57.1631 54.712C56.6175 54.8601 55.6704 54.4065 55.1712 54.2538C54.605 54.0732 53.7609 53.6196 53.1433 53.689C53.6219 53.7862 54.0028 53.9205 54.5278 54.2028L54.291 54.5083C53.2874 54.1288 54.3631 54.1704 53.3131 54.0177C53.2771 54.5361 54.6977 54.5407 55.3925 54.8185C55.0888 54.837 54.6874 54.8185 54.2293 54.7027C54.466 54.7907 54.7028 54.874 54.9396 54.9666C54.6153 54.8555 54.291 54.7398 53.9719 54.6241C54.0594 54.6518 54.1469 54.6796 54.2344 54.7027C53.9102 54.5778 53.5859 54.4574 53.2513 54.3556C53.0249 54.2723 52.8035 54.189 52.5771 54.1056C52.6697 54.0501 52.6749 53.976 52.5205 53.8557C51.5065 53.3002 51.1616 53.3789 50.6624 53.3789C50.3381 53.2493 50.0241 53.1197 49.6999 52.9855C49.5764 52.7448 49.8234 52.5874 48.6859 52.1106L49.7359 52.2958C49.041 51.4904 48.7734 52.1106 48.1197 51.7403C48.2896 51.944 48.233 52.0551 49.0359 52.3698C49.0359 52.5596 48.3925 52.3791 48.0889 52.2773L48.269 52.3652C48.269 52.3652 48.2278 52.3745 48.2072 52.3791C47.3991 52.0366 46.6065 51.6848 45.8139 51.3284C45.8036 51.3191 45.7933 51.3099 45.783 51.3006L46.0712 51.3608C45.3918 51.1479 44.7536 50.8562 44.1205 50.5554L44.1668 50.5322C44.105 50.5137 44.0433 50.4998 43.9815 50.4906C43.6778 50.3471 43.3742 50.2036 43.0756 50.0555C43.2352 50.0277 43.2609 49.9629 42.844 49.787C43.2867 49.5509 44.4396 50.3656 44.7639 50.5646C44.5528 50.435 44.2337 50.2406 44.1462 50.0045C44.0484 49.7361 44.733 50.0416 44.7793 50.0647C44.6609 49.6991 43.8322 49.7268 43.3999 49.3704C43.4462 49.4861 43.2352 49.4861 43.23 49.5787C43.3999 49.25 41.408 48.6391 41.233 48.8427L42.2727 49.1297C42.2212 49.3102 41.7014 49.2176 41.3925 49.2038C38.9992 47.954 36.683 46.5885 34.4749 45.1027C34.583 44.9916 34.8918 44.9777 34.7014 44.7C33.8109 43.9084 33.7132 44.2834 33.4815 44.4222C31.3352 42.9225 29.2867 41.3071 27.372 39.5759C27.408 39.525 27.4955 39.5111 27.6499 39.5435C27.1404 38.9695 27.3051 39.3306 27.2639 39.4741C26.9911 39.2287 26.7183 38.988 26.4558 38.7335C26.4918 38.6455 26.5073 38.5066 26.847 38.7566C26.4713 38.2243 26.2808 38.2984 26.0801 38.3724C25.5911 37.9049 25.1124 37.4235 24.6389 36.9375C24.5926 36.794 24.5668 36.6551 24.5668 36.5487C24.0933 36.0673 23.7999 35.8821 23.5786 35.822C23.3419 35.5627 23.1154 35.2989 22.8838 35.0351C23.0639 35.1369 23.2183 35.1739 23.3367 35.049C22.7036 34.762 22.2919 34.3407 21.8698 33.8408C21.3242 33.1743 20.7838 32.5077 20.2691 31.8181C19.3117 30.5405 18.4264 29.2167 17.6338 27.8512C16.033 25.1017 14.7514 22.1115 14.4426 18.9963C14.4478 18.913 14.4426 18.839 14.422 18.7742C14.3808 18.3113 14.3706 17.853 14.3808 17.3948C14.3808 17.404 14.3911 17.4179 14.3963 17.4318C14.4889 17.1495 14.5095 16.9736 14.4941 16.8486C14.4941 16.7421 14.4632 16.6773 14.4272 16.6172C14.4478 16.3718 14.4786 16.1219 14.5198 15.8765C14.6382 16.1265 14.8286 16.3116 14.9161 16.5385C14.8544 15.9552 14.7 15.7284 14.5867 15.46C14.6279 15.2517 14.6742 15.048 14.7257 14.8443C14.8029 14.7749 14.875 14.8443 14.9573 14.8304C14.9573 14.6036 14.9264 14.4277 14.8956 14.2704C15.0757 13.701 15.3125 13.1456 15.6007 12.5947C15.6316 12.5947 15.6933 12.4883 15.8992 12.0578C16.4705 11.1043 17.1757 10.2202 18.0353 9.46106C18.2103 9.39626 18.3389 9.37774 18.4161 9.40552C18.3852 9.33608 18.3904 9.24351 18.4161 9.14167C18.8897 8.76211 19.3992 8.41959 19.9397 8.10946C20.0838 8.04466 20.2433 7.97984 20.408 7.91503C20.8919 7.71136 21.4014 7.56327 21.4014 7.56327C21.6742 7.67436 21.4632 7.80395 21.1338 7.95207C20.8044 8.11407 20.3514 8.31311 20.1455 8.55381C20.5367 8.3594 20.9588 8.18353 21.3139 7.94283C21.6382 7.72065 21.9007 7.44291 22.2455 7.23462C22.4874 7.15593 22.7757 7.00779 23.0794 6.84579C23.1669 6.79487 23.2595 6.74398 23.3521 6.69769C23.9132 6.53105 24.4896 6.3968 25.0713 6.27646C25.0301 6.2996 24.9838 6.31813 24.9426 6.35053C25.5396 6.19315 25.7249 6.29035 25.8999 6.34126C26.0749 6.39681 26.2396 6.42459 26.8161 6.23481C26.6308 6.1839 26.3838 6.11446 26.1161 6.08669C26.8058 5.98022 27.5007 5.8969 28.1955 5.84135C28.4271 5.85523 28.5455 5.91541 28.3963 6.07742C29.019 6.02187 29.472 5.89691 29.6418 5.77193C30.0124 5.75805 30.3779 5.7534 30.7382 5.7534C30.2801 5.98484 29.3021 6.05427 30.3676 6.24405C30.697 6.13759 31.0264 6.03113 31.3661 5.95244C31.5308 6.11444 33.111 6.20241 32.9926 6.5218C33.5433 6.53105 33.6514 6.41531 34.1095 6.38754C34.5007 6.60973 34.7786 6.76248 35.3602 6.62825C33.0646 6.09594 33.7749 6.05428 31.7212 5.84599C31.7727 5.77655 32.0301 5.80431 32.2874 5.83208L32.1176 5.80431C33.7492 5.89689 35.3654 6.14222 36.9609 6.50326C37.1359 6.66527 35.3654 6.14222 36.9609 6.50326V6.51253ZM0.545586 50.6155C0.545586 50.6155 0.524999 50.6665 0.514705 50.6896C0.519852 50.6618 0.530144 50.6387 0.545586 50.6155ZM1.8375 55.1101C0.952207 54.263 0.540439 53.1984 0.401469 52.0505C0.411763 52.0597 0.422056 52.069 0.43235 52.0782C0.561026 53.004 0.911026 54.0362 1.57499 54.7305C1.69338 54.9018 1.85294 55.1055 2.07941 55.3461C2.07941 55.3461 1.99191 55.2628 1.8375 55.1101C1.68309 54.9666 1.98676 55.2628 1.8375 55.1101ZM51.8616 64.2612C52.366 64.076 52.8653 63.877 53.3594 63.6733C53.3491 63.6779 53.3388 63.6872 53.3337 63.6872C52.8499 63.8955 52.3712 64.1038 51.8616 64.2612C52.366 64.076 51.944 64.2334 51.8616 64.2612ZM56.0668 62.4837C55.2227 62.9373 54.4506 63.391 53.7609 63.8492C53.1124 64.0807 52.8962 64.0436 52.9785 63.9464C53.03 63.8816 53.1947 63.7798 53.4109 63.6548C54.6513 63.141 55.8506 62.5624 57.0138 61.9283C56.6947 62.1273 56.391 62.3356 56.0668 62.4884C55.2227 62.942 56.391 62.3356 56.0668 62.4884V62.4837ZM108.237 64.3121C108.042 64.3954 107.851 64.4741 107.656 64.5574C107.743 64.488 107.954 64.4047 108.237 64.3121Z" fill="#FFE093"/>
<path d="M46.0869 51.3788C46.3906 51.4763 46.6943 51.5506 46.998 51.5785L46.0869 51.3788Z" fill="#FFE093"/>
<path d="M43.4196 49.3892C43.4042 49.3474 43.363 49.3009 43.2705 49.2266C43.3116 49.287 43.363 49.3427 43.4196 49.3892Z" fill="#FFE093"/>
<path d="M67.1082 30.8082H66.918C67.0105 30.8364 67.0722 30.8317 67.1082 30.8082Z" fill="#FFE093"/>
<path d="M48.1032 52.2959L48.0621 52.2771C47.8719 52.2112 47.9439 52.2441 48.1032 52.2959Z" fill="#FFE093"/>
<path d="M47.7275 51.4157C47.8766 51.5781 48.0103 51.6894 48.1285 51.7637C48.0617 51.6755 47.9589 51.5688 47.7275 51.4157Z" fill="#FFE093"/>
<path d="M50.0765 11.9868C50.0354 11.9868 49.9891 11.9868 49.9531 11.9962C50.0148 11.9962 50.0508 11.9962 50.0765 11.9868Z" fill="#FFE093"/>
<path d="M58.7498 54.4949C58.7395 54.4391 58.7446 54.3788 58.7549 54.3277C58.6881 54.4159 58.6829 54.4763 58.7498 54.4949Z" fill="#FFE093"/>
<path d="M58.8898 53.7548C59.1211 53.7825 58.8178 54.0232 58.751 54.3287C58.9926 53.9955 59.7894 53.3706 58.8898 53.7548Z" fill="#FFE093"/>
<path d="M47.153 11.1552L45.9795 10.7155L46.2626 11.0395C46.489 11.0395 47.2971 11.3172 47.1582 11.1552H47.153Z" fill="#FFE093"/>
<path d="M44.2098 9.65918C43.8598 9.45551 43.5201 9.2426 43.1598 9.05744L42.1973 9.18704C43.4017 9.65454 43.0208 9.13613 44.2098 9.65918Z" fill="#FFE093"/>
<path d="M41.149 8.1554L41.4574 8.13658C41.1952 8.09892 41.1284 8.11303 41.149 8.1554Z" fill="#FFE093"/>
<path d="M41.0223 8.32167L40.4355 8.4837C40.4355 8.4837 40.837 8.54849 41.2333 8.61792C41.6297 8.70587 42.0208 8.78918 42.0208 8.78918L41.4855 8.50684C41.5319 8.38649 41.1767 8.21984 41.1458 8.15041L40.4819 8.18745C40.6311 8.20596 40.9348 8.24761 41.0223 8.32167Z" fill="#FFE093"/>
<path d="M39.7256 7.90263C39.7461 7.945 39.7821 7.99206 39.7924 8.03442C39.8181 8.00147 39.7924 7.95441 39.7256 7.90263Z" fill="#FFE093"/>
<path d="M22.71 7.26611L23.446 7.07632L23.621 6.84488C23.3173 6.97911 23.0136 7.12262 22.7151 7.26148L22.71 7.26611Z" fill="#FFE093"/>
<path d="M18.4277 9.42677C18.4432 9.46443 18.4586 9.49739 18.4894 9.52563C18.4997 9.47385 18.474 9.44089 18.4277 9.42677Z" fill="#FFE093"/>
<path d="M14.9307 16.556C14.9409 16.6763 14.9564 16.7781 14.9718 16.9263C14.9872 16.7828 14.9718 16.6671 14.9307 16.556Z" fill="#FFE093"/>
<path d="M18.8085 9.424L18.5566 9.75806L18.8651 9.66062L18.8085 9.424Z" fill="#FFE093"/>
<path d="M15.0693 17.3289L15.2852 17.6714L15.2236 17.4122C15.239 17.1946 15.0848 17.1067 15.0693 17.3289Z" fill="#FFE093"/>
<path d="M14.9579 19.3307L14.9271 18.4188L14.7061 18.9974L14.9579 19.3307Z" fill="#FFE093"/>
<path d="M39.9356 47.7271C39.2614 47.1114 38.3555 46.9679 37.5938 46.4912C38.1908 47.0374 39.2151 47.4817 39.9356 47.7271Z" fill="#FFE093"/>
<path d="M46.5189 49.9031C46.2667 49.8985 45.9578 49.8152 46.385 50.0466L45.3145 50.1531C46.4417 50.8428 46.4417 50.1207 46.5137 49.9031C46.4417 50.1207 46.2615 49.8985 46.5137 49.9031H46.5189Z" fill="#FFE093"/>
<path d="M53.7152 52.7636L52.449 52.509L53.0512 52.7451C52.66 52.8237 52.4027 52.8376 51.8828 52.8284C52.8093 53.0506 53.7306 53.1755 53.7152 52.7636Z" fill="#FFE093"/>
<path d="M50.7842 52.4987C50.9178 52.5452 51.0721 52.5916 51.2263 52.6473C51.1235 52.5405 51.0823 52.4337 50.7842 52.4987Z" fill="#FFE093"/>
<path d="M51.7022 52.8242C51.7741 52.8242 51.8256 52.8242 51.8872 52.8289C51.6611 52.7778 51.44 52.7127 51.2344 52.6477C51.3115 52.7267 51.4143 52.8196 51.7073 52.8242C51.7793 52.8242 51.4143 52.8196 51.7073 52.8242H51.7022Z" fill="#FFE093"/>
<path d="M54.4922 53.3284C55.1767 53.5691 55.8819 53.7728 56.5767 53.9811L55.8304 53.6247C55.5319 53.8654 54.9451 53.1294 54.4922 53.3238V53.3284Z" fill="#FFE093"/>
<path d="M64.3998 47.8655C64.3277 48.5228 63.1542 50.004 62.4336 50.6011L62.8402 50.652C63.3189 50.2215 63.6123 49.6568 63.9159 49.1199C64.1784 48.6662 64.4512 48.0506 64.9762 47.7868C64.7137 47.8377 65.2799 46.8147 64.3998 47.8655C65.2748 46.8147 64.3277 48.5228 64.3998 47.8655Z" fill="#FFE093"/>
<path d="M64.9756 47.7875C65.0013 47.7828 65.0373 47.7687 65.0835 47.7357C65.0476 47.7498 65.0116 47.7686 64.9756 47.7875Z" fill="#FFE093"/>
<path d="M65.805 47.1439C65.7844 47.3661 66.0106 47.1347 66.1854 47.0375C66.4784 46.6672 66.5863 46.1673 66.3345 46.32C66.5401 46.8384 65.8153 46.6162 65.805 47.1439C65.8101 46.6162 65.7844 47.3661 65.805 47.1439Z" fill="#FFE093"/>
<path d="M68.2067 41.8401C68.1348 42.1965 67.996 42.6825 68.2479 42.2058C68.5049 41.1412 68.0474 41.3356 67.9497 40.7755C67.523 41.5809 67.8572 42.4604 68.2067 41.8447C67.8572 42.4604 68.1348 42.2012 68.2067 41.8447V41.8401Z" fill="#FFE093"/>
<path d="M68.8305 33.7938L68.2959 33.2106L68.301 33.5207L68.8305 33.7938Z" fill="#FFE093"/>
<path d="M65.3821 27.4756C65.3821 27.3599 65.3821 27.2488 65.3821 27.2488L64.6572 26.6702C64.6572 26.6702 65.4078 27.6978 65.3821 27.7117C65.3821 27.7117 65.3821 27.596 65.3821 27.4802C65.3821 27.6006 65.3821 27.3645 65.3821 27.4802V27.4756Z" fill="#FFE093"/>
<path d="M64.7274 26.1332C64.7274 26.1332 64.568 25.8971 64.4035 25.6703C64.2288 25.4481 64.0488 25.2213 64.0488 25.2213L64.1928 25.5962C64.4292 26.0822 64.5064 25.8277 64.7223 26.1332H64.7274Z" fill="#FFE093"/>
<path d="M63.1587 24.0844C63.3543 24.2603 63.555 24.4408 63.555 24.4408C63.555 24.4408 63.3234 24.1909 63.0918 23.9363C62.8447 23.7002 62.5977 23.4595 62.5977 23.4595C62.716 23.5521 62.7366 23.6493 62.7521 23.7372C62.7521 23.7372 62.9682 23.8992 63.1638 24.0844C63.3594 24.2603 62.9682 23.9039 63.1638 24.0844H63.1587Z" fill="#FFE093"/>
<path d="M93.2852 65.5057C92.2867 65.5335 91.2985 65.5846 90.3926 65.6682L93.2852 65.5057Z" fill="#FFE093"/>
<path d="M104.843 65.4409C104.617 65.4362 104.375 65.4503 104.134 65.4691C104.252 65.4785 104.463 65.4738 104.843 65.4409Z" fill="#FFE093"/>
<path d="M36.7973 61.6927L37.0081 61.5163C36.8076 61.5999 36.7562 61.6556 36.7973 61.6927Z" fill="#FFE093"/>
<path d="M86.1523 65.3531L86.2963 65.3625C86.9337 65.3813 86.687 65.3672 86.1523 65.3531Z" fill="#FFE093"/>
<path d="M86.8447 65.8843C87.1793 65.9448 87.6374 66.0379 88.533 66.0938C87.8484 66.0053 87.308 65.9169 86.8447 65.8843Z" fill="#FFE093"/>
<path d="M12.5344 11.714C12.5241 11.5887 12.5189 11.482 12.5138 11.4032C12.5035 11.5887 12.5138 11.6862 12.5344 11.714Z" fill="#FFE093"/>
<path d="M26.8672 66.978C26.5481 66.9266 26.2342 66.8752 25.915 66.8285C26.229 66.8846 26.5481 66.9313 26.8672 66.978Z" fill="#FFE093"/>
<path d="M49.3696 65.7685C49.2873 65.843 49.1742 65.9221 49.0303 65.9966C49.3798 65.8616 49.5135 65.7824 49.3696 65.7685Z" fill="#FFE093"/>
<path d="M47.1577 66.6359C47.1577 66.6359 46.1643 66.8581 46.1849 66.9414C46.2158 67.0479 47.4305 66.8165 47.5077 66.8072C46.9621 66.7979 48.2643 66.423 49.0364 65.9972C48.4187 66.2286 47.7856 66.4276 47.1628 66.6359C46.9518 66.6915 47.3687 66.5665 47.1628 66.6359H47.1577Z" fill="#FFE093"/>
<path d="M17.1804 3.4612C17.4841 3.2205 17.9267 2.95205 18.3642 2.6697C19.2598 2.13739 20.2172 1.70227 20.2172 1.70227C19.8208 1.70227 19.2289 2.00315 18.8583 2.14664C18.7245 2.24847 18.462 2.40121 18.1738 2.60025C18.0245 2.71134 16.5731 3.88706 16.5576 3.88243C16.5936 3.8778 16.6297 3.86391 16.6606 3.84076C16.6606 3.84076 16.8664 3.68801 17.1753 3.4612C16.8664 3.69264 17.4789 3.2205 17.1753 3.4612H17.1804Z" fill="#FFE093"/>
<path d="M33.5135 0.52844L33.9458 0.52844C31.7789 0.181282 31.1458 0.264591 30.5385 0.287735C29.9208 0.34328 29.3135 0.334017 27.126 0.426592C28.4848 0.403448 29.8385 0.477519 31.1819 0.639526C31.9591 0.583981 32.7311 0.551584 33.5135 0.52844C33.776 0.52844 33.251 0.533069 33.5135 0.52844Z" fill="#FFE093"/>
<path d="M38.2613 2.13035L37.3555 1.99567C38.1738 2.17216 38.354 2.19073 38.2613 2.13035Z" fill="#FFE093"/>
<path d="M40.1011 2.13319C40.1011 1.99432 37.7386 1.54071 37.5482 1.49905C36.7453 1.32315 35.7879 1.0223 34.9541 1.0223C35.5563 1.0223 36.3181 1.36018 36.8945 1.52682C36.8945 1.64254 38.1092 2.01749 38.2636 2.12395C38.9173 2.23504 39.571 2.34148 40.2144 2.48035C39.746 2.35074 38.7989 2.11932 38.485 1.98046C38.6394 1.99435 40.1011 2.0869 40.1011 2.12855V2.13319Z" fill="#FFE093"/>
<path d="M42.6778 3.41943C42.5904 3.34495 42.4568 3.2565 42.3951 3.19133C42.3437 3.20995 42.4568 3.2984 42.6778 3.41943Z" fill="#FFE093"/>
<path d="M71.6673 42.0329C71.6159 42.7689 71.5645 43.5049 71.5645 43.5049C71.5645 43.5049 71.8883 41.2784 71.8369 41.2738L71.6827 40.561C71.6827 41.047 71.7187 41.5469 71.6673 42.0329C71.7033 41.6673 71.6159 42.7689 71.6673 42.0329Z" fill="#FFE093"/>
<path d="M65.0132 56.4013C65.0544 56.3025 65.0132 56.2837 64.9053 56.3355C64.9156 56.3778 64.9516 56.4061 65.0132 56.4013Z" fill="#FFE093"/>
<path d="M89.96 60.3351C90.382 60.3021 90.7475 60.2739 91.293 60.241C90.768 60.2362 90.346 60.2786 89.96 60.3351Z" fill="#FFE093"/>
<path d="M65.7275 56.1748C65.7275 56.1748 65.7018 55.8832 65.707 55.874L65.085 56.6516L65.7275 56.1748Z" fill="#FFE093"/>
<path d="M93.9685 59.9009C93.9685 59.9009 93.7317 59.9288 93.4898 59.9568C93.2531 59.9754 93.0111 59.994 93.0111 59.994C92.2031 59.9893 91.9148 60.1337 92.7332 60.1383C92.7332 60.1383 93.042 60.0871 93.3509 60.0312C93.6597 59.9661 93.9685 59.8963 93.9685 59.8963V59.9009Z" fill="#FFE093"/>
<path d="M99.9358 59.8548C98.8498 59.9569 97.7638 60.0125 96.6777 60.0636L98.716 60.1842L99.9358 59.8548Z" fill="#FFE093"/>
<path d="M94.0312 69.3441C96.5584 68.6081 99.7857 67.2334 101.932 66.2243C99.1062 67.1316 96.7643 68.3767 94.0312 69.3441Z" fill="#FFE093"/>
<path d="M94.439 66.9684C95.1853 66.848 96.2199 66.7601 94.5883 66.7832L97.4706 66.1583C93.1214 66.1398 94.2897 66.7555 94.4339 66.9684C95.1802 66.848 94.2846 66.7508 94.4339 66.9684H94.439Z" fill="#FFE093"/>
<path d="M70.2524 64.5994C69.2127 64.4975 68.6105 64.5207 68.8679 64.766C70.2421 64.9836 71.6113 65.1687 72.9958 65.3446L70.8855 64.9604C71.9767 64.9373 72.7385 64.9743 74.3135 65.0715C72.7951 64.8632 71.2973 64.6966 70.2576 64.5994C71.2973 64.6966 69.2179 64.4975 70.2576 64.5994H70.2524Z" fill="#FFE093"/>
<path d="M78.0035 65.482C77.5454 65.4448 77.0307 65.3705 76.4902 65.3101C76.9329 65.4309 77.1954 65.5656 78.0035 65.482Z" fill="#FFE093"/>
<path d="M74.8583 65.0886C74.6422 65.0793 74.4929 65.0746 74.3076 65.07C75.0488 65.1538 75.79 65.2375 76.49 65.312C76.1708 65.2189 75.7385 65.1212 74.8635 65.0886C75.7436 65.1212 74.6473 65.0793 74.8635 65.0886H74.8583Z" fill="#FFE093"/>
<path d="M65.904 63.8447C63.7989 63.3541 61.6989 62.8264 59.6298 62.2247C59.5989 62.22 59.568 62.2108 59.5371 62.2062C59.5371 62.2062 59.5577 62.2154 59.5834 62.2339L59.604 62.2478C60.2577 62.47 60.9114 62.6783 61.5702 62.8866C62.1621 62.757 63.0062 63.1782 63.5415 63.3541C64.2724 63.5855 65.1165 63.8864 65.904 63.8447Z" fill="#FFE093"/>
<path d="M22.9246 67.2742C20.7886 66.9641 18.8893 66.4549 17.6489 65.8809C17.8548 66.0198 17.1754 65.8856 16.7584 65.8254C16.2437 65.7143 16.1099 65.7837 18.7143 66.6123C20.6033 66.9363 22.4768 67.3853 24.3812 67.626C26.7231 68.0287 29.2246 68.2092 30.8665 68.3666L30.1459 68.0009C27.8503 67.8435 25.2614 67.6352 22.9246 67.2742C20.7886 66.9641 25.2614 67.6352 22.9246 67.2742Z" fill="#FFE093"/>
<path d="M17.6543 65.8813C17.6028 65.8442 17.4949 65.7885 17.3047 65.7142C17.4126 65.7699 17.536 65.8256 17.6543 65.8813Z" fill="#FFE093"/>
<path d="M13.7368 63.8529C13.5155 63.7604 11.3486 62.6633 11.2045 62.8346C11.1736 62.8763 11.3692 63.0059 11.3692 63.0059C12.0743 63.1216 12.4192 63.3762 12.8104 63.6631C12.9854 63.7789 14.7405 64.6398 14.7508 64.4824C14.7611 64.3251 13.8707 63.9409 13.7317 63.8529C14.2309 64.1631 12.9957 63.5382 13.7317 63.8529H13.7368Z" fill="#FFE093"/>
<path d="M27.4685 61.8954C27.4685 61.8954 27.2008 61.8535 26.928 61.8163C26.6604 61.7651 26.3927 61.7139 26.3927 61.7139L25.0391 61.9559C25.8471 61.942 26.6604 61.9466 27.4685 61.8954Z" fill="#FFE093"/>
<path d="M49.2099 59.1264C49.4003 59.1264 49.6319 59.094 49.6319 59.094C49.6319 59.094 49.9047 58.9089 50.0591 58.7746C50.1415 58.7052 50.2033 58.6358 50.2547 58.5478C50.2496 58.5386 50.193 58.5339 50.2033 58.5339C50.1827 58.5339 50.2702 58.5432 50.2136 58.5571C49.7503 58.7839 49.2768 58.9783 48.793 59.1588C48.8341 59.1496 48.9216 59.1218 48.968 59.1357C49.0297 59.1357 49.1121 59.1357 49.2099 59.1357C49.1121 59.1403 49.4003 59.1357 49.2099 59.1357V59.1264Z" fill="#FFE093"/>
<path d="M49.4263 58.018C49.7248 58.1106 50.0336 58.1106 50.3321 58.2263C50.3321 58.2263 49.838 58.0366 49.3439 57.8468C48.5461 57.5089 47.7432 57.171 47.7432 57.171L48.9579 57.8097C49.1071 57.8884 49.2564 57.9717 49.4211 58.0227C49.5189 58.0551 49.3696 58.0041 49.4211 58.0227L49.4263 58.018Z" fill="#FFE093"/>
<path d="M43.2406 55.0823C44.0538 55.4387 44.8825 55.772 44.8825 55.772C43.4722 55.1471 42.0877 54.4713 40.7031 53.7909C41.1612 54.0038 41.398 54.1751 41.6296 54.3463C41.6296 54.3463 42.4377 54.7166 43.2458 55.0869C44.059 55.4433 42.4377 54.7166 43.2458 55.0869L43.2406 55.0823Z" fill="#FFE093"/>
</svg>
